<?xml version="1.0" standalone="no"?>
<!DOCTYPE svg PUBLIC "-//W3C//DTD SVG 1.1//EN" "http://www.w3.org/Graphics/SVG/1.1/DTD/svg11.dtd" >
<svg xmlns="http://www.w3.org/2000/svg" xmlns:xlink="http://www.w3.org/1999/xlink" version="1.1">
<metadata>
Created by FontForge 20200314 at Sun Apr  7 17:29:13 2013
 By Unknown
(r) (c) 1995 [T-26] Chicago www.t26.com 773.862.1201 T0139 ID#5087276 designer: Eric Lin
</metadata>
<defs>
<font id="FelinaGothic" horiz-adv-x="1000" >
  <font-face 
    font-family="FelinaGothic"
    font-weight="400"
    font-stretch="normal"
    units-per-em="1000"
    panose-1="0 0 4 0 0 0 0 0 0 0"
    ascent="724"
    descent="-276"
    x-height="428"
    cap-height="714"
    bbox="-274 -288 1207 1047"
    underline-thickness="92"
    underline-position="-157"
    unicode-range="U+0020-F002"
  />
<missing-glyph horiz-adv-x="500" 
d="M63 0v738h375v-738h-375zM125 63h250v613h-250v-613z" />
    <glyph glyph-name=".notdef" horiz-adv-x="500" 
d="M63 0v738h375v-738h-375zM125 63h250v613h-250v-613z" />
    <glyph glyph-name="glyph1" horiz-adv-x="0" 
 />
    <glyph glyph-name="glyph2" horiz-adv-x="302" 
 />
    <glyph glyph-name="space" unicode=" " horiz-adv-x="302" 
 />
    <glyph glyph-name="exclam" unicode="!" horiz-adv-x="299" 
d="M299 714q-38 0 -66 -84q-21 -64 -24 -124l-19 -336h-71l-24 336q-15 208 -90 208h294zM263 46q-32 0 -58 -38v0q-20 -29 -53 -29q-34 0 -56.5 33t-55.5 33q30 0 53 31q19 35 58 35q34 0 54 -28v1q26 -38 58 -38z" />
    <glyph glyph-name="quotedbl" unicode="&#x22;" horiz-adv-x="460" 
d="M414 733q-34 -31 -34 -121v-165h-90v165q0 90 -34 121h158zM204 733q-34 -31 -34 -121v-165h-90v165q0 90 -34 121h158z" />
    <glyph glyph-name="numbersign" unicode="#" horiz-adv-x="604" 
d="M664 432h-176l-29 -123h152v-124q-31 34 -121 34h-51l-51 -220h-107l53 220h-126l-49 -220h-188q88 0 132 186l8 34h-32q-90 0 -121 -34v124h174l29 123h-149v124q31 -34 121 -34h48l45 191h93l-43 -191h132l46 191h189q-96 0 -133 -186l-1 -5h35q90 0 120 34v-124z
M386 432h-130l-27 -123h127z" />
    <glyph glyph-name="dollar" unicode="$" horiz-adv-x="585" 
d="M631 814q-84 0 -157 -154q49 -43 74 -43l-100 -74q-10 16 -16 24l-67 -153q71 -38 108 -71q53 -49 66 -111q27 -33 55 -34q-24 -3 -55 -34q-20 -87 -89 -136q-65 -47 -151 -47q-58 0 -115 23l-50 -113h-188q84 0 160 159q-49 36 -63 36q-4 0 -7 -1l103 86q8 -12 13 -18
l91 207q-131 72 -153 154q-27 35 -57 37q28 4 58 38v0q22 72 83 111q55 35 128 35q52 0 96 -21l45 100h188zM361 630q-25 12 -59 12q-39 0 -67.5 -26t-28.5 -65q0 -49 79 -95zM412 197q0 64 -90 119l-97 -220q31 -14 69 -14q47 0 82.5 34t35.5 81z" />
    <glyph glyph-name="percent" unicode="%" horiz-adv-x="738" 
d="M760 182q-17 -5 -28 -17q-9 -76 -50 -125t-102 -49q-58 0 -100 50t-51 124q-11 12 -28 17q19 3 28 18q7 73 47.5 119.5t103.5 46.5q62 0 103.5 -47t48.5 -119q9 -15 28 -18zM669 713q-91 0 -173 -186l-233 -528h-189q91 0 173 186l233 528h189zM340 532q-17 -5 -27 -18
q-9 -76 -49 -123q-42 -50 -103 -50q-58 0 -100 50t-51 123q-10 13 -28 18q18 2 28 17q6 73 47 120t104 47q62 0 103.5 -47t48.5 -120q10 -15 27 -17zM650 181q0 48 -18 80.5t-52 32.5q-33 0 -51 -32.5t-18 -80.5t17 -79q19 -35 52 -35t52 35q18 31 18 79zM231 531
q0 47 -17 79q-20 34 -53 34t-51 -32.5t-18 -80.5t17 -79q19 -35 52 -35t52 35q18 31 18 79z" />
    <glyph glyph-name="ampersand" unicode="&#x26;" horiz-adv-x="796" 
d="M435 139l-173 199q-38 -12 -59.5 -46.5t-21.5 -79.5q0 -51 42 -87.5t95 -36.5q69 0 117 51zM412 535q0 39 -25.5 67.5t-56.5 28.5q-43 0 -67 -27t-24 -71q0 -33 75 -97q36 6 67 35.5t31 63.5zM372 373l131 -141q17 33 23 59q3 13 10 72h208q-82 0 -104 -76
q-6 -25 -14 -48q-19 -57 -42 -96l59 -64q27 -29 72 -51.5t81 -27.5h-230l-56 59q-88 -78 -205 -78q-167 0 -242 181q-23 36 -59 36v8q30 0 58 34q11 54 43 100q36 52 86 76q-29 32 -29 33q-19 23 -27 41q-22 37 -59 37v8q30 0 58 34q17 72 68.5 114t118.5 42q64 0 116 -40
q56 -43 74 -113q29 -35 59 -35v-8q-35 0 -59 -35q-38 -94 -139 -121z" />
    <glyph glyph-name="quotesingle" unicode="'" horiz-adv-x="266" 
d="M211 733q-35 -31 -34 -121l1 -165h-90v165q0 90 -34 121h157z" />
    <glyph glyph-name="parenleft" unicode="(" horiz-adv-x="391" 
d="M444 -110h-74q-18 0 -80 30q-121 58 -184 173q-59 105 -59 235q0 107 58.5 206t157.5 160q72 44 99 44h71q-32 -9 -78 -23q-179 -77 -179 -425q0 -109 45 -215q55 -127 147 -158q54 -18 76 -27z" />
    <glyph glyph-name="parenright" unicode=")" horiz-adv-x="391" 
d="M344 328q0 -130 -59 -235q-63 -115 -184 -173q-62 -30 -80 -30h-75q23 7 77 26q96 36 149 161q43 102 43 213q0 349 -179 425q-43 18 -79 23h72q27 0 99 -44q99 -61 157.5 -160t58.5 -206z" />
    <glyph glyph-name="asterisk" unicode="*" horiz-adv-x="467" 
d="M431 521q-15 9 -36 9q-18 0 -49 -8l-60 -16l47 -47q35 -35 57 -35q14 0 26 12l-111 -111q9 8 9 20q0 24 -35 59l-47 47l-47 -47q-36 -36 -36 -56q0 -14 13 -26l-111 111q11 -11 23 -11q20 0 57 37l47 47l-60 16q-31 8 -49 8q-21 0 -36 -9l33 112q10 -21 33 -32
q9 -5 42 -14l53 -15v60q0 37 -6 52q-9 22 -36 22h157q-25 0 -33 -22q-5 -14 -5 -52v-60l53 16q50 15 68 51z" />
    <glyph glyph-name="plus" unicode="+" horiz-adv-x="630" 
d="M40 402q31 -34 121 -34h97v31q0 186 -90 186h293q-90 0 -90 -186v-31h99q90 0 121 34v-157q-31 34 -121 34h-99v-50q0 -186 89 -186h-292q90 0 90 186v50h-97q-90 0 -121 -34v157z" />
    <glyph glyph-name="comma" unicode="," horiz-adv-x="302" 
d="M163 -17h-43q-49 10 -49 61q0 50 47 66l21 29l20 -28q34 -9 53.5 -40t19.5 -69q0 -70 -52 -131q-43 -51 -69 -51v54q56 40 52 109z" />
    <glyph glyph-name="hyphen" unicode="-" horiz-adv-x="358" 
d="M358 293q-65 0 -91 -92h-258q47 0 75 92h274z" />
    <glyph glyph-name="hyphen" unicode="&#x2010;" horiz-adv-x="358" 
d="M358 293q-65 0 -91 -92h-258q47 0 75 92h274z" />
    <glyph glyph-name="period" unicode="." horiz-adv-x="231" 
d="M227 44q-32 0 -58 -38v0q-20 -28 -53 -28q-35 0 -56 31q-23 35 -56 35q28 0 53 30q18 35 58 35q34 0 54 -27v0q26 -38 58 -38z" />
    <glyph glyph-name="slash" unicode="/" horiz-adv-x="498" 
d="M541 713q-89 0 -172 -186l-234 -528h-188q90 0 172 186l151 342q25 57 83 186h188z" />
    <glyph glyph-name="zero" unicode="0" horiz-adv-x="810" 
d="M536 362q0 118 -43 195q-47 84 -130 84q-82 0 -128 -85q-42 -76 -42 -194q0 -117 42 -194q47 -85 128 -85q82 0 129 84q44 78 44 195zM62 403q13 144 93 235q83 95 208 95q124 0 208 -94q81 -92 96 -236q29 -35 59 -35v-8q-36 0 -60 -37q-19 -149 -99 -243
q-83 -98 -204 -98q-114 0 -199 100q-83 97 -102 241q-24 37 -60 37v8q32 0 60 35z" />
    <glyph glyph-name="one" unicode="1" horiz-adv-x="454" 
d="M400 700q-98 0 -98 -153v-422q0 -58 14 -79q18 -31 76 -31v-15h-292v15q88 0 88 110v444l-109 -86l-67 88q9 0 18 2q21 6 40 20l161 121h169v-14z" />
    <glyph glyph-name="two" unicode="2" horiz-adv-x="617" 
d="M612 514v-8q-36 0 -60 -37q-17 -39 -48 -77q-27 -30 -54 -61l-209 -243h174q84 0 112 37v-125h-527v15q49 0 126 95l238 292q36 44 42 53q21 31 21 55q0 47 -37 81t-84 34q-46 0 -83 -30q-26 -21 -61 -70l-94 73q5 -1 9 -1q19 0 51 33q43 46 67 62q51 34 116 34
q85 0 150 -45q69 -48 91 -132q26 -35 60 -35z" />
    <glyph glyph-name="three" unicode="3" horiz-adv-x="593" 
d="M588 213v-8q-34 0 -59 -36q-70 -182 -254 -179q-61 1 -114 24q-28 12 -73 42q-34 22 -48 22q-5 0 -9 -1l88 86q23 -28 61 -48q45 -24 92 -24q54 0 92.5 36t38.5 86q0 55 -40 92q-36 34 -82 34h-26q-45 0 -64 -13v115q20 -13 64 -13q38 0 71.5 35t33.5 75q0 39 -27 65
t-65 26q-63 0 -109 -71l-90 66q4 -1 8 -1q16 0 47 25q46 37 64 48q43 26 88 26q150 0 196 -138q29 -35 60 -35v-8q-36 0 -60 -37q-28 -70 -93 -98q121 -34 149 -158q29 -35 60 -35z" />
    <glyph glyph-name="four" unicode="4" horiz-adv-x="693" 
d="M680 150h-159q0 -87 17 -111t72 -24v-15h-293v15q55 0 72 24t17 111h-401v15q35 0 63 24q24 20 55 71l279 454v-134q0 -31 18 -57h-18l-168 -285h173v235h203v-14q-57 0 -76 -27q-14 -19 -14 -68v-126h48q84 0 112 37v-125z" />
    <glyph glyph-name="five" unicode="5" horiz-adv-x="585" 
d="M519 166q-71 -176 -248 -176q-110 0 -217 84l-30 -6l94 95q65 -72 144 -72q56 0 95 40q37 37 37 84q0 55 -38 89.5t-93 34.5q-110 0 -128 -13v185q0 88 -10 122q-21 67 -89 67v13h448v-124q-17 24 -47 31q-19 4 -65 4h-124v-191h47q89 0 150.5 -50t75.5 -137
q29 -35 59 -35v-8q-38 0 -61 -37z" />
    <glyph glyph-name="six" unicode="6" horiz-adv-x="620" 
d="M438 205q0 61 -38 99q-36 35 -88 35q-54 0 -88 -37t-34 -96q0 -55 37 -90q34 -34 85 -34t87 31q39 35 39 92zM4 204v8q30 0 58 34q21 210 126 323q117 126 286 149q7 1 20 17v-115l-21 -1q-51 -2 -105 -32q-48 -27 -78 -63q-45 -54 -63 -113q44 26 100 26
q84 0 146.5 -52.5t84.5 -142.5q29 -33 58 -33v-8q-36 0 -60 -37q-74 -183 -244 -183q-171 0 -247 186q-24 37 -61 37z" />
    <glyph glyph-name="seven" unicode="7" horiz-adv-x="593" 
d="M601 700q-34 0 -87 -69q-44 -56 -73 -119l-237 -512h-182v15q73 0 118 95l245 513h-243q-46 0 -65 -4q-30 -7 -48 -31v126h572v-14z" />
    <glyph glyph-name="eight" unicode="8" horiz-adv-x="625" 
d="M409 535q0 -42 -27.5 -70t-66.5 -28q-38 0 -65 28t-27 69q0 44 24.5 70.5t67.5 26.5q42 0 68 -27.5t26 -68.5zM440 212q0 -55 -36 -89.5t-89 -34.5q-52 0 -88 36t-36 88q0 57 37 92q34 34 87 34q54 0 89.5 -34.5t35.5 -91.5zM6 210v-8q36 0 60 -37q76 -184 249 -184
q175 0 249 185h1q24 37 60 37v8q-30 0 -59 35q-17 97 -112 150q36 34 64 97q25 34 58 34v8q-28 0 -57 33q-19 74 -73 115.5t-131 41.5q-76 0 -129 -42.5t-69 -116.5q-29 -33 -58 -33v-8q36 0 60 -37h1q24 -60 59 -92q-95 -53 -114 -151q-28 -35 -59 -35z" />
    <glyph glyph-name="nine" unicode="9" horiz-adv-x="617" 
d="M430 497q0 54 -39 91q-36 33 -83 33q-49 0 -86 -33q-41 -36 -41 -91q0 -60 36 -96t90 -36q52 0 87.5 36.5t35.5 95.5zM616 499v-8q-33 0 -59 -35q-17 -206 -114 -319q-106 -126 -317 -148q-7 -1 -20 -17v126l21 1q92 4 166 52q80 52 107 138q-48 -22 -98 -22
q-187 0 -240 189q-24 37 -60 37v8q30 0 59 35q75 187 246 187q173 0 249 -189q29 -35 60 -35z" />
    <glyph glyph-name="colon" unicode=":" horiz-adv-x="302" 
d="M264 336q-32 0 -59 -39v0q-20 -28 -53 -28q-35 0 -56 31q-23 35 -56 35q31 0 53 30q18 35 58 35q34 0 54 -27v0q27 -37 59 -37zM264 48q-32 0 -59 -38v0q-20 -29 -53 -29q-34 0 -56.5 33t-55.5 33q30 0 53 31q19 34 58 34q35 0 54 -27v1q27 -38 59 -38z" />
    <glyph glyph-name="semicolon" unicode=";" horiz-adv-x="304" 
d="M264 328q-32 0 -59 -39v1q-19 -29 -53 -29q-35 0 -56 31q-23 35 -56 35q29 0 53 30q18 35 58 35q34 0 54 -27v0q27 -37 59 -37zM163 -17h-43q-49 10 -49 61q0 50 47 66l21 29l20 -28q34 -9 53.5 -40t19.5 -69q0 -70 -52 -131q-43 -51 -69 -51v54q56 40 52 109z" />
    <glyph glyph-name="less" unicode="&#x3c;" horiz-adv-x="630" 
d="M593 -23q0 25 -21 53q-24 31 -58 45l-443 180q-20 7 -60 25q-12 12 -39 28q9 2 22 14t17 14q1 1 60 25l443 183q34 14 56.5 43.5t22.5 54.5v-170l-420 -164l420 -162v-169z" />
    <glyph glyph-name="equal" unicode="=" horiz-adv-x="630" 
d="M591 338h-551v123q31 -34 121 -34h309q90 0 121 34v-123zM591 143q-31 34 -121 34h-309q-90 0 -121 -34v127h551v-127z" />
    <glyph glyph-name="greater" unicode="&#x3e;" horiz-adv-x="630" 
d="M659 308q-9 -2 -22 -14t-17 -14t-60 -25l-443 -180q-34 -14 -56.5 -43.5t-22.5 -54.5v169l420 162l-420 164v170q0 -25 22.5 -54.5t56.5 -43.5l443 -183q20 -6 60 -25q12 -12 39 -28z" />
    <glyph glyph-name="question" unicode="?" horiz-adv-x="561" 
d="M302 -124q-20 -29 -53 -29q-35 0 -57.5 33t-54.5 33q28 0 53 31q18 35 57 35q34 0 55 -28v1q26 -38 58 -38q-32 0 -58 -38zM495 469q-28 -57 -88 -110q-45 -38 -91 -77q-42 -39 -42 -74q0 -52 4 -64q12 -40 62 -40v-16h-172v107q0 64 53 128q48 50 97 99q53 54 53 93
q0 47 -34.5 78.5t-81.5 31.5q-77 0 -150 -100l-93 73q5 -1 9 -1q21 0 54 33q47 48 69 62q49 34 111 34q87 0 154 -48t88 -130q28 -34 58 -34v-8q-36 0 -60 -37z" />
    <glyph glyph-name="at" unicode="@" horiz-adv-x="820" 
d="M788 363q0 -151 -106.5 -257.5t-257.5 -106.5q-150 0 -256.5 106.5t-106.5 257.5q0 150 106.5 256.5t256.5 106.5q151 0 257.5 -106.5t106.5 -256.5zM711 363q0 119 -84 204t-203 85q-118 0 -202 -85t-84 -204t84 -204t202 -85q119 0 203 85t84 204zM626 182h-147v25
q-39 -39 -84 -39q-124 0 -179 160q-22 28 -42 36q20 7 42 35q21 71 73 116t119 45q38 0 104 -31l57 23v-218q0 -127 57 -152zM479 278v195l-39 8q-54 0 -85.5 -32.5t-31.5 -89.5q0 -117 85 -117q33 0 71 36z" />
    <glyph glyph-name="A" unicode="A" horiz-adv-x="861" 
d="M865 0h-234l-72 178h-255l-70 -178h-234v14q39 0 85 31q51 34 73 83l270 616h9l270 -616q22 -50 72 -83q46 -31 86 -31v-14zM531 267l-99 253l-98 -253h197z" />
    <glyph glyph-name="B" unicode="B" horiz-adv-x="639" 
d="M636 218v-7q-31 0 -61 -38q-51 -180 -227 -180q-26 0 -84.5 3.5t-85.5 3.5h-152v15q59 0 79 60q11 34 11 104v363q0 159 -99 159v14h147q38 0 78.5 3.5t64.5 3.5q65 0 118 -37.5t71 -99.5q29 -35 59 -35v-8q-36 0 -60 -37q-22 -67 -87 -99q128 -32 167 -150
q29 -38 61 -38zM391 542q0 40 -33 69t-83 24q-12 -1 -45 0v-206h49q38 0 72 28q40 34 40 85zM447 214q0 59 -48 94q-42 31 -100 31h-69v-250q24 0 72 -2q62 -5 103.5 31t41.5 96z" />
    <glyph glyph-name="C" unicode="C" horiz-adv-x="757" 
d="M737 88q-5 2 -10 2q-16 0 -52 -28q-47 -36 -83 -52q-63 -28 -144 -28q-156 0 -258 98q-96 93 -118 249q-26 31 -55 31v8q33 0 55 32q15 143 119.5 238t254.5 95q127 0 217 -73q37 -30 59 -27l-81 -92q-71 100 -193 100q-116 0 -183 -86q-61 -77 -61 -192q0 -118 61 -194
q66 -83 183 -83q128 0 200 107z" />
    <glyph glyph-name="D" unicode="D" horiz-adv-x="843" 
d="M840 369v-7q-21 0 -38 -9q-20 -11 -20 -26q-28 -160 -135.5 -249.5t-259.5 -83.5q-38 2 -146 6h-211v15q99 0 99 189v328q0 85 -12 116q-21 51 -87 51v15h211q120 13 164 13q144 0 248.5 -89t128.5 -235q0 -15 18 -24.5t40 -9.5zM646 362q0 136 -87 211q-79 67 -206 67
q-66 0 -110 -16v-524q48 -12 131 -12q122 0 197 77t75 197z" />
    <glyph glyph-name="E" unicode="E" horiz-adv-x="580" 
d="M550 0h-509v14q90 0 90 172v326q0 88 -10 121q-21 66 -89 66v15h489v-124q-18 23 -47 30q-19 4 -65 4h-164v-196h139q45 0 65 13v-115q-19 13 -65 13h-76q-29 0 -46.5 -19.5t-17.5 -51.5v-180h185q90 0 121 34v-122z" />
    <glyph glyph-name="F" unicode="F" horiz-adv-x="529" 
d="M41 0v14q90 0 90 172v326q0 88 -10 121q-21 66 -89 66v15h489v-124q-18 23 -47 30q-19 4 -65 4h-164v-196h161q44 0 65 13v-115q-19 13 -65 13h-98q-29 0 -46.5 -19.5t-17.5 -51.5v-268h-203z" />
    <glyph glyph-name="G" unicode="G" horiz-adv-x="821" 
d="M788 139q-19 2 -55 -31q-137 -126 -285 -126q-151 0 -254 100q-99 96 -117 247q-25 32 -55 32q1 7 0 7q32 0 55 32q13 141 119 237t250 96q156 0 279 -132q35 -30 59 -27l-106 -78q-92 145 -230 145q-111 0 -178 -88q-61 -80 -61 -190q0 -108 62 -190q68 -90 172 -90
q119 0 194 102v90h-182q-26 0 -46 -23v112h375q-17 -13 -17 -43v-138q3 -1 10 -22.5t11 -21.5z" />
    <glyph glyph-name="H" unicode="H" horiz-adv-x="837" 
d="M794 16v-16h-203v274q0 27 -18 46t-47 19h-226q-29 0 -47.5 -20t-18.5 -45v-274h-204v16q60 0 80 60q10 32 10 110v326q0 84 -13 123q-22 66 -86 66v13h213v-286h357v286h203q-1 -13 0 -13q-59 0 -79 -62q-11 -35 -11 -112v-341q0 -76 11 -110q19 -60 79 -60z" />
    <glyph glyph-name="I" unicode="I" horiz-adv-x="403" 
d="M343 15v-15h-293v15q90 0 90 171v342q0 172 -90 172v14h293v-14q-59 0 -79 -63q-11 -35 -11 -109v-342q0 -171 90 -171z" />
    <glyph glyph-name="J" unicode="J" horiz-adv-x="593" 
d="M568 700q-58 0 -77 -63q-10 -34 -10 -109v-312q0 -111 -63 -175q-59 -59 -153 -59q-68 0 -125 39q-41 28 -89 89q-3 2 -13 12t-16 13q-10 5 -20 3l99 82q64 -137 157 -137q110 0 110 139v307q0 171 -93 171v14h293v-14z" />
    <glyph glyph-name="K" unicode="K" horiz-adv-x="686" 
d="M758 0h-243l-285 350v-350h-203v14q90 0 90 172v343q0 171 -90 171v14h203v-288l369 307v-154q-29 0 -58 -24l-199 -167l268 -308q57 -66 148 -66v-14z" />
    <glyph glyph-name="L" unicode="L" horiz-adv-x="574" 
d="M549 0h-514v15q90 0 90 171v342q0 172 -90 172v14h204v-626h189q90 0 121 34v-122z" />
    <glyph glyph-name="M" unicode="M" horiz-adv-x="1007" 
d="M939 700q-57 0 -83 -65q-20 -50 -15 -107l33 -349q8 -84 15 -106q20 -58 75 -58v-15h-188l-36 438l-233 -468h-7l-243 468l-32 -438h-188v15q59 0 77 60q4 13 13 111l32 342q1 16 1 31q0 141 -104 141v15h163l288 -525l268 525h164v-15z" />
    <glyph glyph-name="N" unicode="N" horiz-adv-x="825" 
d="M817 0h-169l-411 503v-503h-204v15q59 0 79 60q11 35 11 111v343q0 76 -11 110q-20 61 -78 61v15h164l372 -437v437h203v-15q-60 0 -79 -61q-11 -34 -11 -111v-342q0 -65 30 -113q37 -58 104 -58v-15z" />
    <glyph glyph-name="O" unicode="O" horiz-adv-x="890" 
d="M876 368v-8q-35 -8 -55 -31q-18 -150 -121 -247q-105 -100 -255 -100q-145 0 -252 102q-103 99 -121 245q-22 24 -56 31v8q35 3 56 32q13 140 122.5 236.5t250.5 96.5q142 0 252 -96.5t123 -236.5q21 -29 56 -32zM689 362q0 108 -67 191q-72 88 -177 88t-176 -88
q-66 -83 -66 -191q0 -113 64 -193q68 -86 178 -86q108 0 178 87q66 81 66 192z" />
    <glyph glyph-name="P" unicode="P" horiz-adv-x="582" 
d="M599 549v-7q-33 -4 -53 -33q-15 -29 -31 -57q-68 -113 -224 -113h-32v-339h-204v15q90 0 90 158v375q0 152 -99 152v15h109q28 0 83.5 3.5t83.5 3.5q125 0 193 -95q15 -25 32.5 -50t51.5 -28zM423 545q0 37 -28.5 63.5t-67.5 26.5q-12 0 -34.5 -2t-33.5 -2v-202h35
q52 0 90.5 32.5t38.5 83.5z" />
    <glyph glyph-name="Q" unicode="Q" horiz-adv-x="887" 
d="M1033 -131h-20q-89 -66 -197 -66q-115 0 -234 81q-64 43 -115 99q-9 -1 -27 -1q-147 0 -256.5 101t-127.5 246q-18 23 -56 32v7q37 5 56 32q13 139 127 236t257 97t257 -96.5t127 -236.5q22 -32 56 -32v-9q-32 0 -55 -30q-13 -102 -74 -185.5t-151 -126.5q26 -35 85 -71
q71 -43 131 -43q109 0 197 83v-64q0 -32 20 -53zM689 362q0 108 -67 191q-72 88 -177 88t-176 -88q-66 -83 -66 -191q0 -113 64 -193q68 -86 178 -86q108 0 178 87q66 81 66 192z" />
    <glyph glyph-name="R" unicode="R" horiz-adv-x="628" 
d="M732 0h-240l-237 341h-21v-341h-200v15q86 0 86 158v375q0 59 -19 100q-25 52 -76 52v15h105q28 0 84 3.5t83 3.5q130 0 193 -95q14 -26 29 -52q19 -26 55 -26v-7q-35 -1 -51.5 -30.5t-32.5 -59.5q-52 -70 -120 -90l216 -288q22 -29 68 -45q39 -14 78 -14v-15zM398 545
q0 42 -32 68t-79 21q-31 -3 -53 -3v-202h35q56 0 92.5 33.5t36.5 82.5z" />
    <glyph glyph-name="S" unicode="S" horiz-adv-x="585" 
d="M574 210q-29 -4 -54 -31q-21 -89 -89 -143.5t-152 -54.5q-66 0 -124 27q-32 15 -80 51q-37 27 -52 27q-4 0 -7 -1l103 86q63 -89 155 -89q46 0 82.5 36t36.5 87q0 55 -74 101q-73 40 -146 81q-84 54 -102 123q-26 31 -58 33v7q30 4 58 34v0q24 74 84 114q55 37 128 37
q60 0 113 -31q24 -13 76 -56q36 -31 56 -31l-100 -74q-58 99 -145 99q-40 0 -68.5 -26t-28.5 -65q0 -49 74 -88t149 -77q87 -56 111 -139q22 -29 54 -30v-7z" />
    <glyph glyph-name="T" unicode="T" horiz-adv-x="571" 
d="M552 591q-31 34 -121 34h-95v-439q0 -171 89 -171v-15h-292v15q89 0 89 171v439h-83q-90 0 -121 -34v124h534v-124z" />
    <glyph glyph-name="U" unicode="U" horiz-adv-x="762" 
d="M740 715v-15q-90 0 -90 -172v-342q0 -170 90 -170v-16h-204l1 55q-90 -73 -185 -73q-113 0 -176.5 60.5t-63.5 173.5v312q0 73 -12 109q-20 63 -78 63v15h203v-499q0 -133 134 -133q52 0 102 31q46 28 76 72v529h203z" />
    <glyph glyph-name="V" unicode="V" horiz-adv-x="882" 
d="M879 715v-15q-42 0 -87 -30q-49 -32 -71 -84q-82 -192 -276 -616h-7q3 0 -102 230q-130 282 -174 386q-22 51 -72 84q-44 30 -86 30v15h234l205 -489l202 489h234z" />
    <glyph glyph-name="W" unicode="W" horiz-adv-x="1211" 
d="M1207 715v-15q-44 0 -89 -30q-49 -32 -69 -84q-74 -193 -256 -616h-7q-76 173 -180 416q-24 -65 -179 -416h-7q-89 204 -256 616q-20 52 -70 85q-45 29 -88 29v15h234l183 -482l128 294q0 173 -90 173v15h293v-15q-90 0 -90 -173l125 -294l184 482h234z" />
    <glyph glyph-name="X" unicode="X" horiz-adv-x="830" 
d="M845 15v-15h-230l-201 295q-21 -32 -201 -295h-230v15q56 0 131 67q53 47 93 104l143 203l-88 128q-126 183 -214 183v15h205l161 -234l161 234h206v-15q-91 0 -215 -183l-87 -128l142 -203q39 -56 93 -104q75 -67 131 -67z" />
    <glyph glyph-name="Y" unicode="Y" horiz-adv-x="784" 
d="M781 715v-15q-90 0 -215 -183l-114 -167v-164q0 -171 90 -171v-15h-293v15q90 0 90 171v164l-114 167q-125 183 -214 183v15h205l180 -260l179 260h206z" />
    <glyph glyph-name="Z" unicode="Z" horiz-adv-x="696" 
d="M724 715v-15q-54 0 -189 -188l-305 -424h313q85 0 113 37v-125h-676v15q29 0 58 25q23 20 60 70l378 514h-316q-46 0 -65 -4q-29 -7 -47 -31v126h676z" />
    <glyph glyph-name="bracketleft" unicode="[" horiz-adv-x="390" 
d="M130 738v-848h206v15q-58 0 -79 39q-13 26 -13 86v555q0 63 13 92q20 46 77 46v15h-204z" />
    <glyph glyph-name="backslash" unicode="\" horiz-adv-x="315" 
d="M452 -1h-188l-234 528q-82 186 -172 186h188l234 -528q83 -186 172 -186z" />
    <glyph glyph-name="bracketright" unicode="]" horiz-adv-x="391" 
d="M258 -110h-206v15q58 0 79 39q13 26 13 86v555q0 63 -13 92q-20 46 -77 46v15h204v-848z" />
    <glyph glyph-name="asciicircum" unicode="^" horiz-adv-x="630" 
d="M609 339h-170l-121 236l-120 -236h-170q24 0 52 22.5t46 56.5l192 358l193 -358q18 -34 46 -56.5t52 -22.5z" />
    <glyph glyph-name="underscore" unicode="_" horiz-adv-x="500" 
d="M589 -66q-64 0 -90 -92h-571q47 0 75 92h586z" />
    <glyph glyph-name="grave" unicode="`" horiz-adv-x="380" 
d="M254 569l-26 -24l-168 117l65 66z" />
    <glyph glyph-name="a" unicode="a" horiz-adv-x="566" 
d="M534 15v-15h-172v30q-44 -46 -103 -46q-70 0 -121 41q-61 49 -83 147q-21 28 -48 39v7q28 10 48 38q21 83 79 135.5t137 52.5q34 0 84 -18q41 -14 45 -18l68 27v-301q0 -49 10 -70q13 -30 56 -49zM362 136v191q-44 25 -86 25q-50 0 -79.5 -37t-29.5 -101q0 -58 28 -94.5
t70 -36.5q48 0 97 53z" />
    <glyph glyph-name="b" unicode="b" horiz-adv-x="582" 
d="M565 217v-7q-27 -10 -49 -38q-27 -85 -90.5 -135t-141.5 -50q-46 0 -127 28l-56 -19v601q0 41 -10 61q-15 28 -57 42v15h173v-302q51 31 99 31q74 0 131 -49.5t79 -138.5q21 -28 49 -39zM400 214q0 61 -35 99t-83 38q-40 0 -75 -30v-220q42 -19 75 -19q47 0 82.5 37.5
t35.5 94.5z" />
    <glyph glyph-name="c" unicode="c" horiz-adv-x="496" 
d="M472 37q-10 0 -69.5 -27t-116.5 -27q-77 0 -139 52t-82 137q-21 28 -48 39v7q27 10 49 38q24 88 82.5 138t141.5 50q45 0 80 -14q19 -7 46 -25q21 -14 32 -14q4 0 8 1l-56 -85q-46 45 -91 45q-58 0 -94.5 -39t-36.5 -94q0 -62 41 -102q38 -37 90 -37q49 0 106 47z" />
    <glyph glyph-name="d" unicode="d" horiz-adv-x="602" 
d="M535 15v-15h-174v29q-9 -12 -39 -27q-38 -18 -72 -18q-75 0 -128.5 51t-70.5 135q-21 28 -48 39v7q27 10 48 37q53 192 227 192q29 0 57 -11q14 -7 27 -13v154q0 53 -7 74q-13 35 -55 51v15h168v-584q0 -49 10 -70q14 -27 57 -46zM361 132v190q-42 31 -72 31
q-51 0 -86 -36q-38 -39 -38 -104q0 -60 34.5 -95.5t89.5 -35.5q36 0 72 50z" />
    <glyph glyph-name="e" unicode="e" horiz-adv-x="523" 
d="M501 183h-325q24 -103 127 -103q53 0 111 45l58 -91q-15 4 -58 -19q-59 -32 -125 -32q-165 0 -226 189q-23 29 -49 39v7q27 10 49 38q56 188 215 188q80 0 136 -60q48 -51 59 -121q9 -57 28 -80zM371 260q-11 92 -89 92q-40 0 -68.5 -28t-31.5 -64h189z" />
    <glyph glyph-name="f" unicode="f" horiz-adv-x="397" 
d="M493 676l-68 -94q-41 49 -88 49q-108 0 -108 -121v-82h60q45 0 65 13v-115q-19 13 -65 13h-61v-339h-198v15q58 0 77 31q13 21 13 77v216h-34q-46 0 -65 -13v115q20 -13 65 -13h34v106q0 85 58 138t144 53q59 0 111 -27q48 -24 60 -22z" />
    <glyph glyph-name="g" unicode="g" horiz-adv-x="541" 
d="M476 -47q0 -104 -60 -166.5t-154 -62.5q-87 0 -156 45q-16 11 -45 30q-15 8 -28 9l84 87q80 -72 140 -72q51 0 82 37t31 85v71q-44 -24 -85 -24q-86 0 -138 41q-56 42 -88 138q-21 28 -48 39v7q27 10 48 37q29 86 89 138t138 52q49 0 122 -36l68 20v-475zM370 109v216
q-41 27 -66 27q-58 0 -95 -35q-39 -38 -39 -104q0 -64 40 -99q36 -33 93 -33q25 0 67 28z" />
    <glyph glyph-name="h" unicode="h" horiz-adv-x="584" 
d="M569 15v-15h-199v235q0 112 -74 112q-38 0 -77 -40v-307h-198v15q57 0 77 42q13 27 13 89v416q0 63 -13 92q-20 46 -77 46v15h198v-315q55 45 104 45q65 0 110 -45q47 -48 47 -123v-131q0 -62 12 -89q20 -42 77 -42z" />
    <glyph glyph-name="i" unicode="i" horiz-adv-x="278" 
d="M270 15v-15h-200v428h200v-15q-58 0 -78 -43q-12 -27 -12 -90v-140q0 -60 12 -85q20 -40 78 -40zM247 605q-32 0 -58 -39v1q-19 -29 -53 -29q-35 0 -56 31q-23 35 -56 35q28 0 53 31q19 34 58 34q34 0 54 -27v0q26 -37 58 -37z" />
    <glyph glyph-name="j" unicode="j" horiz-adv-x="308" 
d="M280 428v-15q-61 0 -84 -45q-15 -29 -15 -91v-305q0 -113 -68 -177q-61 -57 -151 -57q-52 0 -96 26q-29 16 -80 63q-33 30 -60 25l106 84q46 -97 131 -97q50 0 79.5 36.5t29.5 102.5v450h208zM263 605q-32 0 -58 -39v1q-19 -29 -53 -29q-35 0 -56 31q-23 35 -56 35
q30 0 53 31q19 34 58 34q34 0 54 -27v0q26 -37 58 -37z" />
    <glyph glyph-name="k" unicode="k" horiz-adv-x="591" 
d="M591 15v-15h-242l-130 188v-188h-198v15q57 0 77 44q13 28 13 90v431q0 59 -13 83q-19 37 -77 37v15h198v-427l136 140h202v-15q-43 0 -64 -5q-31 -8 -54 -32l-126 -134l126 -168q44 -59 152 -59z" />
    <glyph glyph-name="l" unicode="l" horiz-adv-x="318" 
d="M304 15v-15h-198v562q0 63 -13 92q-20 46 -77 46v15h196v-575q0 -60 13 -86q21 -39 79 -39z" />
    <glyph glyph-name="m" unicode="m" horiz-adv-x="842" 
d="M841 15v-15h-199v224q0 121 -93 121q-32 0 -64 -23q4 -17 4 -39v-283h-198v15q89 0 89 116v100q0 61 -19 87.5t-63 26.5q-37 0 -79 -38v-307h-198v15q58 0 77 36q13 24 13 83v159q0 59 -13 83q-19 37 -77 37v15h198v-28q64 44 118 44q64 0 110 -44q88 44 135 44
q75 0 122 -47t47 -126v-138q0 -59 12 -82q19 -36 78 -36z" />
    <glyph glyph-name="n" unicode="n" horiz-adv-x="603" 
d="M579 15v-15h-199v231q0 114 -83 114q-40 0 -78 -42v-303h-198v15q58 0 77 37q13 24 13 83v151q0 60 -13 86q-20 41 -77 41v15h198v-28q59 45 117 45q70 0 111.5 -42.5t41.5 -119.5v-148q0 -59 13 -83q19 -37 77 -37z" />
    <glyph glyph-name="o" unicode="o" horiz-adv-x="580" 
d="M64 172q-21 28 -49 39v7q26 9 49 37q15 79 81 134t146 55q85 0 150 -54.5t81 -133.5q20 -28 48 -38v-7q-28 -11 -48 -38q-17 -83 -81.5 -135.5t-149.5 -52.5q-83 0 -146.5 53t-80.5 134zM415 214q0 56 -34 96.5t-90 40.5q-53 0 -86.5 -40t-33.5 -97q0 -56 31 -94
q34 -41 89 -41q56 0 91 41q33 38 33 94z" />
    <glyph glyph-name="p" unicode="p" horiz-adv-x="582" 
d="M563 210q-29 -10 -49 -38q-59 -180 -220 -180q-36 0 -91 24v-278h-165v15q41 0 53 29q8 18 8 70v427q0 64 -7 88q-12 46 -55 46v15h166v-28q44 44 110 44q73 0 127 -54q51 -50 74 -135q23 -28 49 -38v-7zM390 207q0 64 -30 101.5t-79 37.5q-33 0 -78 -35v-203
q36 -26 70 -26q49 0 83 33t34 92z" />
    <glyph glyph-name="q" unicode="q" horiz-adv-x="586" 
d="M366 104v225q-37 20 -70 20q-56 0 -90.5 -36t-34.5 -99q0 -58 39 -94.5t89 -36.5q25 0 67 21zM55 171q-20 27 -48 38v7q25 10 48 38q26 86 82 136q61 54 145 54q46 0 134 -35l56 24v-564q0 -64 6 -80q12 -36 61 -36v-15h-173v278q-72 -24 -85 -24q-86 0 -138 41
q-56 42 -88 138z" />
    <glyph glyph-name="r" unicode="r" horiz-adv-x="475" 
d="M466 392l-62 -100q-40 58 -97 58q-47 0 -73 -38q-22 -32 -22 -75v-237h-198v15q57 0 77 45q13 29 13 92v127q0 62 -13 90q-20 44 -77 44v15h198v-28q38 45 95 45q58 0 105 -29q43 -26 54 -24z" />
    <glyph glyph-name="s" unicode="s" horiz-adv-x="436" 
d="M72 355q20 43 66 67q40 22 83 22q68 0 139 -53q9 -6 30 -15q7 0 12 -1l-62 -80q-12 14 -43 33q-41 24 -70 24q-66 0 -66 -39q0 -16 48 -34q77 -28 97 -39q56 -30 70 -75q22 -29 50 -39v-7q-19 -7 -49 -38q-47 -97 -164 -97q-77 0 -153 52q-18 12 -38 8l66 90
q15 -15 43 -30q42 -22 82 -22q29 0 46.5 12.5t17.5 28.5q0 29 -46 48t-92 37q-54 25 -67 64q-22 29 -49 39v7q18 7 49 37z" />
    <glyph glyph-name="t" unicode="t" horiz-adv-x="435" 
d="M409 39q-6 4 -12 4q-5 0 -48 -27.5t-95 -27.5q-51 0 -93 40t-42 97v214h-34q-45 0 -65 -13v115q19 -13 65 -13h34v66q0 58 -13 81q-19 34 -77 34v15h199v-196h60q46 0 65 13v-115q-20 13 -65 13h-60v-198q0 -57 49 -57q31 0 69 44z" />
    <glyph glyph-name="u" unicode="u" horiz-adv-x="598" 
d="M574 0h-198v21q-52 -34 -103 -34q-77 0 -122 45t-45 113v135q0 62 -13 90q-20 43 -77 43v15h199v-231q0 -62 22.5 -88.5t74.5 -26.5q23 0 64 29v317h198v-15q-57 0 -77 -43q-13 -28 -13 -90v-138q0 -61 13 -87q19 -40 77 -40v-15z" />
    <glyph glyph-name="v" unicode="v" horiz-adv-x="531" 
d="M535 413q-70 0 -98 -64l-169 -380h-7l-168 380q-28 64 -98 64v15h169l101 -238l101 238h169v-15z" />
    <glyph glyph-name="w" unicode="w" horiz-adv-x="742" 
d="M760 413q-71 0 -98 -64q-53 -125 -169 -380h-7l-117 260l-118 -260h-8l-168 380q-28 64 -98 64v15h170l100 -238l101 238h134v-15q-42 0 -62 -64l70 -159l100 238h170v-15z" />
    <glyph glyph-name="x" unicode="x" horiz-adv-x="536" 
d="M528 15v-15h-177l-89 134l-89 -134h-177v15q34 0 79 37q35 28 56 59l77 111l-59 88q-69 103 -130 103v15h162l81 -120l80 120h162v-15q-59 0 -129 -103l-60 -88l78 -111q22 -31 56 -59q45 -37 79 -37z" />
    <glyph glyph-name="y" unicode="y" horiz-adv-x="531" 
d="M550 428v-15q-74 0 -103 -64l-278 -611h-187v15q54 7 67 11q34 12 47 43l110 260l-131 282q-30 64 -98 64v15h170l116 -260l115 260h172z" />
    <glyph glyph-name="z" unicode="z" horiz-adv-x="488" 
d="M486 428v-15q-55 0 -189 -187l-99 -138h137q84 0 112 37v-125h-475v15q29 0 58 25q22 19 60 70l174 230h-127q-46 0 -65 -4q-30 -7 -48 -30v122h462z" />
    <glyph glyph-name="braceleft" unicode="{" horiz-adv-x="340" 
d="M338 -111q-125 0 -172 27q-50 28 -50 105v183q0 100 -124 107v4q75 10 101 35q23 21 23 73v163q0 84 43 116q48 35 174 31v-15q-65 -11 -89.5 -31t-24.5 -65v-621q0 -46 23.5 -64.5t95.5 -29.5v-18z" />
    <glyph glyph-name="bar" unicode="|" horiz-adv-x="315" 
d="M212 95q-77 -39 -77 -98h-15v640q77 25 77 90h15v-632z" />
    <glyph glyph-name="braceright" unicode="}" horiz-adv-x="339" 
d="M347 307q-75 -10 -99.5 -33t-24.5 -75v-163q0 -84 -43 -116q-48 -35 -174 -31v17q65 11 89.5 30.5t24.5 63.5v621q0 46 -23.5 64.5t-95.5 29.5v18q125 0 173.5 -27.5t48.5 -104.5v-183q0 -100 124 -107v-4z" />
    <glyph glyph-name="asciitilde" unicode="~" horiz-adv-x="630" 
d="M422 224q-46 0 -138 39t-139 39q-37 0 -89 -18q-59 -20 -75 -45l-29 15q63 77 97 104q62 50 137 50q54 0 142 -36.5t119 -36.5q128 0 172 58l27 -16q-104 -153 -224 -153z" />
    <glyph glyph-name="nonbreakingspace" unicode="&#xa0;" horiz-adv-x="302" 
 />
    <glyph glyph-name="exclamdown" unicode="&#xa1;" horiz-adv-x="299" 
d="M299 -262h-294q37 0 65 84q22 64 25 124l19 336h71l24 -336q15 -208 90 -208zM96 442q20 29 53 29q35 0 57.5 -33t54.5 -33q-28 0 -53 -31q-17 -35 -57 -35q-34 0 -55 28v-1q-25 38 -58 38q33 0 58 38z" />
    <glyph glyph-name="cent" unicode="&#xa2;" horiz-adv-x="496" 
d="M260 446q-57 1 -90.5 -41.5t-33.5 -99.5q0 -46 25 -83zM15 350q24 88 82.5 138.5t142.5 50.5q27 0 58 -9l49 112h189q-85 0 -157 -152q16 -8 27 -4l-55 -85q-1 2 -8 8l-104 -234q14 -2 21 -2q45 0 105 47l57 -89q-14 3 -66 -23q-59 -30 -116 -30q-22 0 -43 3l-67 -153
h-188q55 1 106 71q23 30 65 115l1 2q-68 48 -99 150q-28 28 -50 37v7q28 10 50 40z" />
    <glyph glyph-name="sterling" unicode="&#xa3;" horiz-adv-x="604" 
d="M547 0h-514q95 0 95 186v153q-88 0 -120 -34v157q31 -34 120 -34v106q0 85 58.5 138t145.5 53q52 0 107 -27q51 -24 64 -22l-69 -94q-45 49 -88 49q-110 0 -110 -121v-82h54q90 0 121 34v-157q-31 34 -121 34h-54v-251h190q90 0 121 34v-122z" />
    <glyph glyph-name="currency" unicode="&#xa4;" horiz-adv-x="757" 
d="M215 452h335l-26 -58h-319q-1 -15 -1 -31q0 -17 1 -34h294l-26 -58h-258q22 -84 79 -132q62 -53 154 -53q128 0 200 107l89 -105q-5 2 -10 2q-16 0 -52 -28q-47 -36 -83 -52q-63 -28 -144 -28q-156 0 -258 98q-96 93 -118 249q-26 31 -55 31v8q33 0 55 32
q15 143 119.5 238t254.5 95q127 0 217 -73q37 -30 59 -27l-81 -92q-71 100 -193 100q-91 0 -154 -55q-57 -50 -79 -134z" />
    <glyph glyph-name="yen" unicode="&#xa5;" horiz-adv-x="768" 
d="M327 282v56h-183v123q31 -34 121 -34h9l-61 90q-124 183 -214 183v15h205l180 -260l179 260h206v-15q-89 0 -215 -183q-30 -45 -62 -90h7q90 0 121 34v-123h-180v-56h180v-127q-31 34 -121 34h-59v-3q0 -171 90 -171v-15h-293v15q90 0 90 171v3h-62q-90 0 -121 -34v127
h183z" />
    <glyph glyph-name="brokenbar" unicode="&#xa6;" horiz-adv-x="315" 
d="M238 713q-34 -31 -34 -121v-164h-90v164q0 90 -34 121h158zM238 0h-158q34 31 34 121v191h90v-191q0 -90 34 -121z" />
    <glyph glyph-name="section" unicode="&#xa7;" horiz-adv-x="585" 
d="M532 -15q-21 -2 -46 -29q-17 -74 -76 -116q-55 -39 -129 -39q-58 0 -110 25q-23 12 -70 46q-30 21 -43 17l87 73q54 -75 132 -75q40 0 70.5 28.5t30.5 68.5q0 52 -66 94q-81 4 -139 51t-69 109q-23 29 -49 31q26 4 49 33v-1q26 85 90 121q-74 47 -90 108q-24 30 -49 31
q24 2 49 32v0q19 61 71 94q47 30 109 30q54 0 97 -26q15 -9 60 -48q31 -26 52 -26l-85 -63q-50 85 -124 85q-33 0 -57.5 -22.5t-24.5 -55.5q0 -41 60 -78q62 -33 123 -66q77 -46 101 -128q21 -27 46 -28q-20 -3 -46 -29q-17 -72 -74 -114q60 -39 74 -104q21 -26 46 -29z
M378 260q0 67 -80 102q-4 1 -14 1q-32 0 -57 -23t-25 -55q0 -82 104 -118q31 9 51.5 35t20.5 58z" />
    <glyph glyph-name="dieresis" unicode="&#xa8;" horiz-adv-x="496" 
d="M389 636q0 -20 -13.5 -34.5t-33.5 -14.5t-33.5 14.5t-13.5 34.5q0 19 13.5 32.5t33.5 13.5q19 0 33 -13.5t14 -32.5zM201 636q0 -20 -13.5 -34.5t-33.5 -14.5t-33.5 14.5t-13.5 34.5q0 19 13.5 32.5t33.5 13.5q19 0 33 -13.5t14 -32.5z" />
    <glyph glyph-name="copyright" unicode="&#xa9;" horiz-adv-x="896" 
d="M804 363q0 -151 -106 -257.5t-257 -106.5t-257.5 106.5t-106.5 257.5q0 150 106.5 256.5t257.5 106.5t257 -106.5t106 -256.5zM727 363q0 119 -84 204t-202 85t-202.5 -85t-84.5 -204t84.5 -205t202.5 -86t202 85.5t84 205.5zM632 197q-6 4 -13 4q-8 0 -62 -30t-109 -30
q-90 0 -149 56q-56 53 -70 142q-5 5 -45 25q20 10 45 25q11 85 71 138t147 53q69 0 135 -49q18 -13 45 -7l-75 -86q-45 64 -104 64q-57 0 -90 -42q-30 -38 -30 -96q0 -60 30 -98q33 -41 90 -41q63 0 108 69z" />
    <glyph glyph-name="ordfeminine" unicode="&#xaa;" horiz-adv-x="604" 
d="M487 407h-125v22q-41 -33 -72 -33q-106 0 -152 135q-18 24 -36 31q19 8 36 30q18 60 62 98t101 38q25 0 59 -13q27 -10 30 -13l49 20v-186q0 -108 48 -129zM362 489v166l-34 7q-46 0 -72.5 -27.5t-26.5 -76.5q0 -99 72 -99q29 0 61 30z" />
    <glyph glyph-name="guillemotleft" unicode="&#xab;" horiz-adv-x="500" 
 />
    <glyph glyph-name="logicalnot" unicode="&#xac;" horiz-adv-x="630" 
d="M624 132h-168q34 30 34 120v102h-329q-90 0 -121 -34v160q31 -34 121 -34h463q-34 -12 -34 -33v-161q0 -90 34 -120z" />
    <glyph glyph-name="minus" unicode="&#xad;" horiz-adv-x="630" 
d="M591 245q-31 34 -121 34h-309q-90 0 -121 -34v157q31 -34 121 -34h309q90 0 121 34v-157z" />
    <glyph glyph-name="minus" unicode="&#x2212;" horiz-adv-x="630" 
d="M591 245q-31 34 -121 34h-309q-90 0 -121 -34v157q31 -34 121 -34h309q90 0 121 34v-157z" />
    <glyph glyph-name="registered" unicode="&#xae;" horiz-adv-x="896" 
d="M788 363q0 -151 -106.5 -257.5t-257.5 -106.5q-150 0 -256.5 106.5t-106.5 257.5q0 150 106.5 256.5t256.5 106.5q151 0 257.5 -106.5t106.5 -256.5zM604 139h-78l-126 182v-182h-136l-1 6q30 1 39 32q4 15 4 53v261q0 80 -48 81l1 6h67q16 0 48 2t48 2q91 0 131 -76
q7 -13 14.5 -26.5t21.5 -15.5h-1q-16 0 -22 -13t-11 -26q-22 -47 -69 -70q26 -37 106 -148q18 -25 38 -44q81 84 81 200q0 119 -84 202.5t-203 83.5q-118 0 -202 -83.5t-84 -202.5t83.5 -203t202.5 -84q99 0 180 63zM472 464q0 22 -17 38t-45 14q-23 -2 -22 -2v-112h8
q76 0 76 62z" />
    <glyph glyph-name="macron" unicode="&#xaf;" horiz-adv-x="437" 
d="M387 680q-65 0 -90 -92h-259q47 0 75 92h274z" />
    <glyph glyph-name="macron" unicode="&#x2c9;" horiz-adv-x="437" 
d="M387 680q-65 0 -90 -92h-259q47 0 75 92h274z" />
    <glyph glyph-name="degree" unicode="&#xb0;" horiz-adv-x="484" 
d="M370 611q0 -50 -38.5 -86t-89.5 -36t-90 36t-39 86t39 86t90 36t89.5 -36t38.5 -86zM307 611q0 27 -19.5 48.5t-46.5 21.5q-26 0 -45 -21.5t-19 -48.5t19 -48.5t46 -21.5q26 0 45.5 21.5t19.5 48.5z" />
    <glyph glyph-name="plusminus" unicode="&#xb1;" horiz-adv-x="632" 
d="M549 293q-26 29 -103 29h-83v-11q0 -158 76 -158h-249q76 0 76 158v11h-82q-77 0 -103 -29v134q26 -29 103 -29h82v12q0 159 -76 159h249q-76 0 -76 -159v-12h83q77 0 103 29v-134zM591 -39q-31 34 -121 34h-309q-90 0 -121 -34v127h551v-127z" />
    <glyph glyph-name="twosuperior" unicode="&#xb2;" horiz-adv-x="362" 
d="M364 610q-11 -3 -18 -11.5t-12 -15.5q-10 -24 -58 -75l-94 -101h63q23 0 35 7q16 8 41 39v-119q-279 0 -355 -1q11 0 57 36q40 31 51 44l131 149q32 36 32 47q0 18 -16 31t-36 13q-33 0 -76 -57l-75 66q25 4 32.5 10.5t23.5 20.5q55 40 98 40q51 0 92 -26t55 -74
q5 -7 11 -14.5t18 -8.5z" />
    <glyph glyph-name="threesuperior" unicode="&#xb3;" horiz-adv-x="362" 
d="M353 459q-17 0 -26 -28q-41 -100 -149 -100q-52 0 -101 27q-29 16 -31 16.5t-30 5.5l73 73q40 -43 83 -43q24 0 40.5 14.5t16.5 34.5q0 22 -16.5 36t-35.5 14h-14q-21 0 -50 -18v110l24 -16q5 -2 26 -2q14 0 28.5 13.5t14.5 28.5q0 33 -36 33q-27 0 -56 -43l-83 62
q9 1 18 3q23 7 45 22q44 31 80 31q97 0 124 -85q16 -23 29 -23q-24 0 -30 -19q-12 -31 -32 -46q50 -26 63 -80q8 -21 25 -21z" />
    <glyph glyph-name="acute" unicode="&#xb4;" horiz-adv-x="380" 
d="M60 569l27 -24l167 117l-65 66z" />
    <glyph glyph-name="mu" unicode="&#xb5;" horiz-adv-x="605" 
d="M215 -5v-117q0 -60 13 -86q21 -39 79 -39v-15h-201v542q0 62 -13 90q-20 43 -77 43v15h199v-231q0 -62 22.5 -88.5t74.5 -26.5q23 0 64 29v317h198v-15q-57 0 -77 -43q-13 -28 -13 -90v-138q0 -61 13 -87q19 -40 77 -40v-15h-198v21q-52 -34 -103 -34q-31 0 -58 8z" />
    <glyph glyph-name="mu" unicode="&#x3bc;" horiz-adv-x="605" 
d="M215 -5v-117q0 -60 13 -86q21 -39 79 -39v-15h-201v542q0 62 -13 90q-20 43 -77 43v15h199v-231q0 -62 22.5 -88.5t74.5 -26.5q23 0 64 29v317h198v-15q-57 0 -77 -43q-13 -28 -13 -90v-138q0 -61 13 -87q19 -40 77 -40v-15h-198v21q-52 -34 -103 -34q-31 0 -58 8z" />
    <glyph glyph-name="paragraph" unicode="&#xb6;" horiz-adv-x="538" 
d="M568 -201h-124v526h-35v-527h-44v203q-8 -5 -33 -14q-33 -11 -52 -11q-85 0 -139 42t-86 137q-26 34 -49 43q22 8 49 41q25 83 86.5 136.5t140.5 53.5q34 0 86 -9q43 -8 48 -10h152q-67 -8 -67 -107v-327q0 -149 67 -177zM365 84v241l-46 12q-63 0 -100.5 -39t-37.5 -107
q0 -128 117 -128q26 0 67 21z" />
    <glyph glyph-name="periodcentered" unicode="&#xb7;" horiz-adv-x="302" 
d="M217 308q0 -28 -19 -48t-46 -20q-28 0 -47 19.5t-19 48.5q0 26 19.5 44.5t45.5 18.5q27 0 46.5 -18.5t19.5 -44.5z" />
    <glyph glyph-name="periodcentered" unicode="&#x2219;" horiz-adv-x="302" 
d="M217 308q0 -28 -19 -48t-46 -20q-28 0 -47 19.5t-19 48.5q0 26 19.5 44.5t45.5 18.5q27 0 46.5 -18.5t19.5 -44.5z" />
    <glyph glyph-name="cedilla" unicode="&#xb8;" horiz-adv-x="316" 
d="M274 -125q0 -43 -39 -70q-35 -25 -84 -25q-29 0 -75 14q-13 4 -20 -2l25 66q-1 0 17.5 -6.5t31.5 -6.5q46 0 46 32q0 29 -40 29q-37 0 -93 -5l38 99h72v-41q50 5 85.5 -20.5t35.5 -63.5z" />
    <glyph glyph-name="onesuperior" unicode="&#xb9;" horiz-adv-x="362" 
d="M274 716q-19 0 -30 -32q-9 -24 -9 -50v-246q0 -31 4 -42q7 -22 31 -22v-1h-161v1q33 0 33 64v213l-47 -31l-66 72q30 -9 55 9l92 65h98z" />
    <glyph glyph-name="ordmasculine" unicode="&#xba;" horiz-adv-x="604" 
d="M492 569q-10 -4 -18 -14q-8 -66 -55.5 -110t-113.5 -44q-64 0 -111.5 44.5t-55.5 109.5q-8 9 -17 14q11 5 18 15q5 62 54.5 105.5t111.5 43.5t112.5 -43.5t56.5 -105.5q6 -10 18 -15zM394 566q0 41 -23 69q-26 30 -66 30t-63.5 -29.5t-23.5 -69.5t23 -67q24 -30 64 -30
t66 29q23 28 23 68z" />
    <glyph glyph-name="guillemotright" unicode="&#xbb;" horiz-adv-x="500" 
 />
    <glyph glyph-name="onequarter" unicode="&#xbc;" horiz-adv-x="906" 
d="M835 103h-87q10 -103 33 -103h-160q24 0 33 103h-246q14 0 46.5 27.5t46.5 49.5l181 274v-117q0 -20 7.5 -27.5t14.5 -13.5h77q-25 0 -32 -31q-2 -12 -2 -51v-38h11q23 0 37.5 7.5t39.5 38.5v-119zM723 713q-90 0 -172 -186l-234 -528h-188q89 0 172 186l234 528h188z
M313 716q-19 0 -30 -32q-9 -24 -9 -50v-246q0 -32 3 -42q7 -23 31 -23h-160v1q33 0 33 64v213l-47 -31l-67 72q31 -8 55 9l93 65h98zM655 261l-54 -85h54v85z" />
    <glyph glyph-name="onehalf" unicode="&#xbd;" horiz-adv-x="906" 
d="M842 276q-12 -2 -18.5 -10.5t-11.5 -15.5q-10 -23 -58 -75l-94 -101h63q23 0 35 7q16 8 41 39v-119q-279 0 -355 -1q11 0 57 36q40 31 51 44l131 149q32 36 32 46q0 18 -16 31.5t-36 13.5q-33 0 -76 -57l-75 66q26 4 33 10.5t23 20.5q57 40 98 40q51 0 92 -26t55 -74
q5 -7 11 -15t18 -9zM723 713q-90 0 -172 -186l-151 -342q-25 -57 -83 -186h-188q89 0 172 186l234 528h188zM313 716q-19 0 -30 -32q-9 -24 -9 -50v-246q0 -31 3 -42q7 -22 31 -22v-1h-160v1q33 0 33 64v213l-47 -31l-67 72q31 -8 55 9l93 65h98z" />
    <glyph glyph-name="threequarters" unicode="&#xbe;" horiz-adv-x="906" 
d="M835 103h-87q10 -103 33 -103h-160q24 0 33 103h-246q14 0 46.5 27.5t46.5 49.5l181 274v-117q0 -20 7.5 -27.5t14.5 -13.5h77q-25 0 -32 -31q-2 -12 -2 -51v-38h11q23 0 37.5 7.5t39.5 38.5v-119zM723 713q-90 0 -172 -186l-234 -528h-188q89 0 172 186l234 528h188z
M367 454q-17 0 -26 -28q-41 -99 -149 -99q-52 0 -101 27q-28 16 -30.5 16.5t-30.5 4.5l74 74q36 -43 82 -43q24 0 40.5 14.5t16.5 33.5q0 22 -16.5 36.5t-35.5 14.5h-14q-19 0 -50 -19v110q12 -8 24 -15q5 -3 26 -3q15 0 29 14t14 29q0 32 -36 32q-27 0 -56 -42l-83 62
q9 1 19 3q23 6 45 22q42 30 80 30q96 0 124 -84q12 -23 28 -23q-24 0 -29 -20q-15 -32 -33 -46q50 -26 63 -80q8 -21 25 -21zM655 261l-54 -85h54v85z" />
    <glyph glyph-name="questiondown" unicode="&#xbf;" horiz-adv-x="604" 
d="M270 562q20 29 53 29q35 0 57.5 -33t54.5 -33q-28 0 -53 -31q-17 -35 -57 -35q-34 0 -55 28v-1q-25 38 -58 38q33 0 58 38zM77 -31q28 57 88 110q45 38 91 77q42 39 42 74q0 52 -4 64q-12 40 -62 40v16h172v-107q0 -64 -53 -128q-48 -50 -97 -99q-53 -54 -53 -93
q0 -47 34.5 -78.5t81.5 -31.5q77 0 150 100l93 -73q-5 1 -9 1q-21 0 -54 -33q-47 -48 -69 -62q-49 -34 -111 -34q-87 0 -152 47q-69 49 -90 131q-28 34 -58 34v8q36 0 60 37z" />
    <glyph glyph-name="Agrave" unicode="&#xc0;" horiz-adv-x="861" 
d="M865 0h-234l-72 178h-255l-70 -178h-234v14q39 0 85 31q51 34 73 83l270 616h9l270 -616q22 -50 72 -83q46 -31 86 -31v-14zM531 267l-99 253l-98 -253h197zM482 850l-26 -24l-168 117l65 66z" />
    <glyph glyph-name="Aacute" unicode="&#xc1;" horiz-adv-x="861" 
d="M865 0h-234l-72 178h-255l-70 -178h-234v14q39 0 85 31q51 34 73 83l270 616h9l270 -616q22 -50 72 -83q46 -31 86 -31v-14zM531 267l-99 253l-98 -253h197zM346 862l27 -24l167 117l-65 66z" />
    <glyph glyph-name="Acircumflex" unicode="&#xc2;" horiz-adv-x="861" 
d="M865 0h-234l-72 178h-255l-70 -178h-234v14q39 0 85 31q51 34 73 83l270 616h9l270 -616q22 -50 72 -83q46 -31 86 -31v-14zM531 267l-99 253l-98 -253h197zM620 792l-16 -15l-165 95l-168 -95l-17 15l161 157h46z" />
    <glyph glyph-name="Atilde" unicode="&#xc3;" horiz-adv-x="861" 
d="M865 0h-234l-72 178h-255l-70 -178h-234v14q39 0 85 31q51 34 73 83l270 616h9l270 -616q22 -50 72 -83q46 -31 86 -31v-14zM531 267l-99 253l-98 -253h197zM571 931q0 -38 -37 -71.5t-77 -33.5q-24 0 -70 22t-64 22q-25 0 -40 -26l-8 10q0 22 29 52q33 33 70 33
q29 0 68.5 -18.5t57.5 -18.5q47 0 64 43z" />
    <glyph glyph-name="Adieresis" unicode="&#xc4;" horiz-adv-x="861" 
d="M865 0h-234l-72 178h-255l-70 -178h-234v14q39 0 85 31q51 34 73 83l270 616h9l270 -616q22 -50 72 -83q46 -31 86 -31v-14zM531 267l-99 253l-98 -253h197zM571 899q0 -20 -13.5 -34.5t-33.5 -14.5t-33.5 14.5t-13.5 34.5q0 19 13.5 32.5t33.5 13.5q19 0 33 -13.5
t14 -32.5zM383 899q0 -20 -13.5 -34.5t-33.5 -14.5t-33.5 14.5t-13.5 34.5q0 19 13.5 32.5t33.5 13.5q19 0 33 -13.5t14 -32.5z" />
    <glyph glyph-name="Aring" unicode="&#xc5;" horiz-adv-x="861" 
d="M865 0h-234l-72 178h-255l-70 -178h-234v14q39 0 85 31q51 34 73 83l270 616h9l270 -616q22 -50 72 -83q46 -31 86 -31v-14zM531 267l-99 253l-98 -253h197zM513 917q0 -31 -25 -54.5t-56 -23.5q-34 0 -60.5 21.5t-26.5 54.5q0 34 24.5 58.5t59.5 24.5q33 0 58.5 -24
t25.5 -57zM473 917q0 19 -13 32.5t-32 13.5q-18 0 -30.5 -13.5t-12.5 -31.5q0 -19 13 -31.5t31 -12.5t31 13t13 30z" />
    <glyph glyph-name="AE" unicode="&#xc6;" horiz-adv-x="1040" 
d="M986 0h-508q89 0 89 186v74h-245l-151 -260h-250q42 0 90 26q53 30 84 79l315 507q17 28 17 50q0 36 -39 52h569v-124q-18 23 -47 30q-19 4 -65 4h-164v-196h139q45 0 65 13v-115q-19 13 -65 13h-76q-29 0 -46 -19.5t-17 -51.5v-180h184q90 0 121 34v-122zM567 349v275
h-30l-163 -275h193z" />
    <glyph glyph-name="Ccedilla" unicode="&#xc7;" horiz-adv-x="757" 
d="M737 88q-5 2 -10 2q-16 0 -52 -28q-47 -36 -83 -52q-63 -28 -144 -28q-156 0 -258 98q-96 93 -118 249q-26 31 -55 31v8q33 0 55 32q15 143 119.5 238t254.5 95q127 0 217 -73q37 -30 59 -27l-81 -92q-71 100 -193 100q-116 0 -183 -86q-61 -77 -61 -192q0 -118 61 -194
q66 -83 183 -83q128 0 200 107zM571 -125q0 -43 -39 -70q-35 -25 -84 -25q-29 0 -75 14q-13 4 -20 -2l25 66q-1 0 17.5 -6.5t31.5 -6.5q46 0 46 32q0 29 -40 29q-37 0 -93 -5l38 99h72v-41q50 5 85.5 -20.5t35.5 -63.5z" />
    <glyph glyph-name="Egrave" unicode="&#xc8;" horiz-adv-x="580" 
d="M550 0h-509v14q90 0 90 172v326q0 88 -10 121q-21 66 -89 66v15h489v-124q-18 23 -47 30q-19 4 -65 4h-164v-196h139q45 0 65 13v-115q-19 13 -65 13h-76q-29 0 -46.5 -19.5t-17.5 -51.5v-180h185q90 0 121 34v-122zM376 859l-26 -24l-168 117l65 66z" />
    <glyph glyph-name="Eacute" unicode="&#xc9;" horiz-adv-x="580" 
d="M220 846l27 -24l167 117l-65 66zM550 0h-509v14q90 0 90 172v326q0 88 -10 121q-21 66 -89 66v15h489v-124q-18 23 -47 30q-19 4 -65 4h-164v-196h139q45 0 65 13v-115q-19 13 -65 13h-76q-29 0 -46.5 -19.5t-17.5 -51.5v-180h185q90 0 121 34v-122z" />
    <glyph glyph-name="Ecircumflex" unicode="&#xca;" horiz-adv-x="580" 
d="M495 856l-16 -15l-165 95l-168 -95l-17 15l161 157h46zM550 0h-509v14q90 0 90 172v326q0 88 -10 121q-21 66 -89 66v15h489v-124q-18 23 -47 30q-19 4 -65 4h-164v-196h139q45 0 65 13v-115q-19 13 -65 13h-76q-29 0 -46.5 -19.5t-17.5 -51.5v-180h185q90 0 121 34v-122
z" />
    <glyph glyph-name="Edieresis" unicode="&#xcb;" horiz-adv-x="580" 
d="M550 0h-509v14q90 0 90 172v326q0 88 -10 121q-21 66 -89 66v15h489v-124q-18 23 -47 30q-19 4 -65 4h-164v-196h139q45 0 65 13v-115q-19 13 -65 13h-76q-29 0 -46.5 -19.5t-17.5 -51.5v-180h185q90 0 121 34v-122zM429 923q0 -20 -13.5 -34.5t-33.5 -14.5t-33.5 14.5
t-13.5 34.5q0 19 13.5 32.5t33.5 13.5q19 0 33 -13.5t14 -32.5zM241 923q0 -20 -13.5 -34.5t-33.5 -14.5t-33.5 14.5t-13.5 34.5q0 19 13.5 32.5t33.5 13.5q19 0 33 -13.5t14 -32.5z" />
    <glyph glyph-name="Igrave" unicode="&#xcc;" horiz-adv-x="403" 
d="M343 15v-15h-293v15q90 0 90 171v342q0 172 -90 172v14h293v-14q-59 0 -79 -63q-11 -35 -11 -109v-342q0 -171 90 -171zM260 864l-26 -24l-168 117l65 66z" />
    <glyph glyph-name="Iacute" unicode="&#xcd;" horiz-adv-x="403" 
d="M343 15v-15h-293v15q90 0 90 171v342q0 172 -90 172v14h293v-14q-59 0 -79 -63q-11 -35 -11 -109v-342q0 -171 90 -171zM114 867l27 -24l167 117l-65 66z" />
    <glyph glyph-name="Icircumflex" unicode="&#xce;" horiz-adv-x="403" 
d="M343 15v-15h-293v15q90 0 90 171v342q0 172 -90 172v14h293v-14q-59 0 -79 -63q-11 -35 -11 -109v-342q0 -171 90 -171zM416 821l-16 -15l-165 95l-168 -95l-17 15l161 157h46z" />
    <glyph glyph-name="Idieresis" unicode="&#xcf;" horiz-adv-x="403" 
d="M343 15v-15h-293v15q90 0 90 171v342q0 172 -90 172v14h293v-14q-59 0 -79 -63q-11 -35 -11 -109v-342q0 -171 90 -171zM339 910q0 -20 -13.5 -34.5t-33.5 -14.5t-33.5 14.5t-13.5 34.5q0 19 13.5 32.5t33.5 13.5q19 0 33 -13.5t14 -32.5zM151 910q0 -20 -13.5 -34.5
t-33.5 -14.5t-33.5 14.5t-13.5 34.5q0 19 13.5 32.5t33.5 13.5q19 0 33 -13.5t14 -32.5z" />
    <glyph glyph-name="Eth" unicode="&#xd0;" horiz-adv-x="836" 
d="M782 405q29 -35 59 -35v-8q-36 0 -60 -37q-28 -158 -135 -247.5t-259 -83.5q-82 6 -146 6h-210v14q99 0 99 158v168q-84 0 -115 -34v157q30 -32 114 -34v112q0 159 -99 159v14h211q120 13 164 13q144 0 248.5 -88.5t128.5 -233.5zM417 340h-174v-240q48 -12 131 -12
q122 0 197 77t75 197q0 136 -87 211q-79 67 -206 67q-66 0 -110 -16v-196h227q-56 0 -53 -88z" />
    <glyph glyph-name="Ntilde" unicode="&#xd1;" horiz-adv-x="825" 
d="M817 0h-169l-411 503v-503h-204v15q59 0 79 60q11 35 11 111v343q0 76 -11 110q-20 61 -78 61v15h164l372 -437v437h203v-15q-60 0 -79 -61q-11 -34 -11 -111v-342q0 -65 30 -113q37 -58 104 -58v-15zM552 920q0 -38 -37 -71.5t-77 -33.5q-24 0 -70 22t-64 22
q-25 0 -40 -26l-8 10q0 22 29 52q33 33 70 33q29 0 68.5 -18.5t57.5 -18.5q47 0 64 43z" />
    <glyph glyph-name="Ograve" unicode="&#xd2;" horiz-adv-x="890" 
d="M876 368v-8q-35 -8 -55 -31q-18 -150 -121 -247q-105 -100 -255 -100q-145 0 -252 102q-103 99 -121 245q-22 24 -56 31v8q35 3 56 32q13 140 122.5 236.5t250.5 96.5q142 0 252 -96.5t123 -236.5q21 -29 56 -32zM689 362q0 108 -67 191q-72 88 -177 88t-176 -88
q-66 -83 -66 -191q0 -113 64 -193q68 -86 178 -86q108 0 178 87q66 81 66 192zM523 888l-26 -24l-168 117l65 66z" />
    <glyph glyph-name="Oacute" unicode="&#xd3;" horiz-adv-x="890" 
d="M876 368v-8q-35 -8 -55 -31q-18 -150 -121 -247q-105 -100 -255 -100q-145 0 -252 102q-103 99 -121 245q-22 24 -56 31v8q35 3 56 32q13 140 122.5 236.5t250.5 96.5q142 0 252 -96.5t123 -236.5q21 -29 56 -32zM689 362q0 108 -67 191q-72 88 -177 88t-176 -88
q-66 -83 -66 -191q0 -113 64 -193q68 -86 178 -86q108 0 178 87q66 81 66 192zM365 863l27 -24l167 117l-65 66z" />
    <glyph glyph-name="Ocircumflex" unicode="&#xd4;" horiz-adv-x="890" 
d="M876 368v-8q-35 -8 -55 -31q-18 -150 -121 -247q-105 -100 -255 -100q-145 0 -252 102q-103 99 -121 245q-22 24 -56 31v8q35 3 56 32q13 140 122.5 236.5t250.5 96.5q142 0 252 -96.5t123 -236.5q21 -29 56 -32zM689 362q0 108 -67 191q-72 88 -177 88t-176 -88
q-66 -83 -66 -191q0 -113 64 -193q68 -86 178 -86q108 0 178 87q66 81 66 192zM626 847l-16 -15l-165 95l-168 -95l-17 15l161 157h46z" />
    <glyph glyph-name="Otilde" unicode="&#xd5;" horiz-adv-x="890" 
d="M876 368v-8q-35 -8 -55 -31q-18 -150 -121 -247q-105 -100 -255 -100q-145 0 -252 102q-103 99 -121 245q-22 24 -56 31v8q35 3 56 32q13 140 122.5 236.5t250.5 96.5q142 0 252 -96.5t123 -236.5q21 -29 56 -32zM689 362q0 108 -67 191q-72 88 -177 88t-176 -88
q-66 -83 -66 -191q0 -113 64 -193q68 -86 178 -86q108 0 178 87q66 81 66 192zM588 959q0 -38 -37 -71.5t-77 -33.5q-24 0 -70 22t-64 22q-25 0 -40 -26l-8 10q0 22 29 52q33 33 70 33q29 0 68.5 -18.5t57.5 -18.5q47 0 64 43z" />
    <glyph glyph-name="Odieresis" unicode="&#xd6;" horiz-adv-x="890" 
d="M876 368v-8q-35 -8 -55 -31q-18 -150 -121 -247q-105 -100 -255 -100q-145 0 -252 102q-103 99 -121 245q-22 24 -56 31v8q35 3 56 32q13 140 122.5 236.5t250.5 96.5q142 0 252 -96.5t123 -236.5q21 -29 56 -32zM689 362q0 108 -67 191q-72 88 -177 88t-176 -88
q-66 -83 -66 -191q0 -113 64 -193q68 -86 178 -86q108 0 178 87q66 81 66 192zM593 925q0 -20 -13.5 -34.5t-33.5 -14.5t-33.5 14.5t-13.5 34.5q0 19 13.5 32.5t33.5 13.5q19 0 33 -13.5t14 -32.5zM405 925q0 -20 -13.5 -34.5t-33.5 -14.5t-33.5 14.5t-13.5 34.5
q0 19 13.5 32.5t33.5 13.5q19 0 33 -13.5t14 -32.5z" />
    <glyph glyph-name="multiply" unicode="&#xd7;" horiz-adv-x="630" 
d="M559 460q-46 2 -110 -62l-77 -77l77 -78q63 -64 110 -61l-112 -112q2 48 -61 110l-78 77l-77 -77q-64 -64 -62 -110l-111 112q45 -3 109 61l78 78l-78 77q-65 64 -109 62l111 111q-2 -44 62 -109l77 -78l78 78q63 63 61 109z" />
    <glyph glyph-name="Oslash" unicode="&#xd8;" horiz-adv-x="890" 
d="M693 362q0 136 -88 218l-222 -490q28 -7 62 -7q115 0 184 84q64 79 64 195zM527 627q-39 14 -82 14q-114 0 -181 -85q-61 -77 -61 -194q0 -154 100 -233zM71 319q-30 38 -61 38v7q33 0 61 38q13 138 123 234.5t251 96.5q62 0 120 -20l24 55h189q-66 0 -126 -96
q72 -46 118.5 -117t53.5 -155q37 -32 62 -32v-7q-31 0 -61 -38q-18 -145 -124 -243t-256 -98q-53 0 -103 15l-27 -63h-188q66 0 129 102q-76 44 -126 121t-59 162z" />
    <glyph glyph-name="Ugrave" unicode="&#xd9;" horiz-adv-x="762" 
d="M740 715v-15q-90 0 -90 -172v-342q0 -170 90 -170v-16h-204l1 55q-90 -73 -185 -73q-113 0 -176.5 60.5t-63.5 173.5v312q0 73 -12 109q-20 63 -78 63v15h203v-499q0 -133 134 -133q52 0 102 31q46 28 76 72v529h203zM461 882l-26 -24l-168 117l65 66z" />
    <glyph glyph-name="Uacute" unicode="&#xda;" horiz-adv-x="762" 
d="M740 715v-15q-90 0 -90 -172v-342q0 -170 90 -170v-16h-204l1 55q-90 -73 -185 -73q-113 0 -176.5 60.5t-63.5 173.5v312q0 73 -12 109q-20 63 -78 63v15h203v-499q0 -133 134 -133q52 0 102 31q46 28 76 72v529h203zM284 882l27 -24l167 117l-65 66z" />
    <glyph glyph-name="Ucircumflex" unicode="&#xdb;" horiz-adv-x="762" 
d="M740 715v-15q-90 0 -90 -172v-342q0 -170 90 -170v-16h-204l1 55q-90 -73 -185 -73q-113 0 -176.5 60.5t-63.5 173.5v312q0 73 -12 109q-20 63 -78 63v15h203v-499q0 -133 134 -133q52 0 102 31q46 28 76 72v529h203zM567 855l-16 -15l-165 95l-168 -95l-17 15l161 157
h46z" />
    <glyph glyph-name="Udieresis" unicode="&#xdc;" horiz-adv-x="762" 
d="M740 715v-15q-90 0 -90 -172v-342q0 -170 90 -170v-16h-204l1 55q-90 -73 -185 -73q-113 0 -176.5 60.5t-63.5 173.5v312q0 73 -12 109q-20 63 -78 63v15h203v-499q0 -133 134 -133q52 0 102 31q46 28 76 72v529h203zM521 914q0 -20 -13.5 -34.5t-33.5 -14.5t-33.5 14.5
t-13.5 34.5q0 19 13.5 32.5t33.5 13.5q19 0 33 -13.5t14 -32.5zM333 914q0 -20 -13.5 -34.5t-33.5 -14.5t-33.5 14.5t-13.5 34.5q0 19 13.5 32.5t33.5 13.5q19 0 33 -13.5t14 -32.5z" />
    <glyph glyph-name="Yacute" unicode="&#xdd;" horiz-adv-x="784" 
d="M781 715v-15q-90 0 -215 -183l-114 -167v-164q0 -171 90 -171v-15h-293v15q90 0 90 171v164l-114 167q-125 183 -214 183v15h205l180 -260l179 260h206zM355 846l27 -24l167 117l-65 66z" />
    <glyph glyph-name="Thorn" unicode="&#xde;" horiz-adv-x="659" 
d="M423 359q0 37 -28.5 63.5t-67.5 26.5q-12 0 -34.5 -2t-33.5 -2v-202h35q52 0 90.5 32.5t38.5 83.5zM598 363v-8q-36 0 -57 -33q-12 -34 -26 -56q-70 -113 -224 -113h-32v-153h-204q90 0 90 172v356q0 186 -90 186h204v-181q48 2 63 2q125 0 193 -94q4 -6 26 -44
q27 -34 57 -34z" />
    <glyph glyph-name="germandbls" unicode="&#xdf;" horiz-adv-x="639" 
d="M387 545q0 36 -27 63.5t-70 27.5q-9 0 -19 -2q-41 -6 -41 -50v-165q27 10 45 10q36 0 71 31q41 35 41 85zM484 505q-33 -75 -90 -94q134 -24 177 -155q27 -38 60 -38v-7q-32 0 -60 -38q-22 -81 -83.5 -130.5t-143.5 -49.5q-24 0 -60 -24l13 118q63 0 104.5 33.5
t41.5 93.5q0 59 -46 94q-42 31 -102 31q-32 0 -65 -24v-285q0 -84 -57 -143q-60 -61 -150 -61q-55 0 -109 27q-50 24 -62 22l68 94q41 -48 88 -48q108 0 108 120v537q0 61 58 103q55 40 129 40q65 0 114.5 -37.5t67.5 -99.5q28 -34 58 -34v-8q-37 0 -59 -37z" />
    <glyph glyph-name="agrave" unicode="&#xe0;" horiz-adv-x="551" 
d="M534 15v-15h-172v30q-44 -46 -103 -46q-70 0 -121 41q-61 49 -83 147q-21 28 -48 39v7q28 10 48 38q21 83 79 135.5t137 52.5q34 0 84 -18q41 -14 45 -18l68 27v-301q0 -49 10 -70q13 -30 56 -49zM362 136v191q-44 25 -86 25q-50 0 -79.5 -37t-29.5 -101q0 -58 28 -94.5
t70 -36.5q48 0 97 53zM322 569l-26 -24l-168 117l65 66z" />
    <glyph glyph-name="aacute" unicode="&#xe1;" horiz-adv-x="551" 
d="M252 569l27 -24l167 117l-65 66zM534 15v-15h-172v30q-44 -46 -103 -46q-70 0 -121 41q-61 49 -83 147q-21 28 -48 39v7q28 10 48 38q21 83 79 135.5t137 52.5q34 0 84 -18q41 -14 45 -18l68 27v-301q0 -49 10 -70q13 -30 56 -49zM362 136v191q-44 25 -86 25
q-50 0 -79.5 -37t-29.5 -101q0 -58 28 -94.5t70 -36.5q48 0 97 53z" />
    <glyph glyph-name="acircumflex" unicode="&#xe2;" horiz-adv-x="551" 
d="M441 531l-16 -15l-165 95l-168 -95l-17 15l161 157h46zM534 15v-15h-172v30q-44 -46 -103 -46q-70 0 -121 41q-61 49 -83 147q-21 28 -48 39v7q28 10 48 38q21 83 79 135.5t137 52.5q34 0 84 -18q41 -14 45 -18l68 27v-301q0 -49 10 -70q13 -30 56 -49zM362 136v191
q-44 25 -86 25q-50 0 -79.5 -37t-29.5 -101q0 -58 28 -94.5t70 -36.5q48 0 97 53z" />
    <glyph glyph-name="atilde" unicode="&#xe3;" horiz-adv-x="551" 
d="M388 648q0 -38 -37 -71.5t-77 -33.5q-24 0 -70 22t-64 22q-25 0 -40 -26l-8 10q0 22 29 52q33 33 70 33q29 0 68.5 -18.5t57.5 -18.5q47 0 64 43zM534 15v-15h-172v30q-44 -46 -103 -46q-70 0 -121 41q-61 49 -83 147q-21 28 -48 39v7q28 10 48 38q21 83 79 135.5
t137 52.5q34 0 84 -18q41 -14 45 -18l68 27v-301q0 -49 10 -70q13 -30 56 -49zM362 136v191q-44 25 -86 25q-50 0 -79.5 -37t-29.5 -101q0 -58 28 -94.5t70 -36.5q48 0 97 53z" />
    <glyph glyph-name="adieresis" unicode="&#xe4;" horiz-adv-x="551" 
d="M421 636q0 -20 -13.5 -34.5t-33.5 -14.5t-33.5 14.5t-13.5 34.5q0 19 13.5 32.5t33.5 13.5q19 0 33 -13.5t14 -32.5zM233 636q0 -20 -13.5 -34.5t-33.5 -14.5t-33.5 14.5t-13.5 34.5q0 19 13.5 32.5t33.5 13.5q19 0 33 -13.5t14 -32.5zM534 15v-15h-172v30
q-44 -46 -103 -46q-70 0 -121 41q-61 49 -83 147q-21 28 -48 39v7q28 10 48 38q21 83 79 135.5t137 52.5q34 0 84 -18q41 -14 45 -18l68 27v-301q0 -49 10 -70q13 -30 56 -49zM362 136v191q-44 25 -86 25q-50 0 -79.5 -37t-29.5 -101q0 -58 28 -94.5t70 -36.5q48 0 97 53z
" />
    <glyph glyph-name="aring" unicode="&#xe5;" horiz-adv-x="551" 
d="M342 627q0 -31 -25 -54.5t-56 -23.5q-34 0 -60.5 21.5t-26.5 54.5q0 34 24.5 58.5t59.5 24.5q33 0 58.5 -24t25.5 -57zM302 627q0 19 -13 32.5t-32 13.5q-18 0 -30.5 -13.5t-12.5 -31.5q0 -19 13 -31.5t31 -12.5t31 13t13 30zM534 15v-15h-172v30q-44 -46 -103 -46
q-70 0 -121 41q-61 49 -83 147q-21 28 -48 39v7q28 10 48 38q21 83 79 135.5t137 52.5q34 0 84 -18q41 -14 45 -18l68 27v-301q0 -49 10 -70q13 -30 56 -49zM362 136v191q-44 25 -86 25q-50 0 -79.5 -37t-29.5 -101q0 -58 28 -94.5t70 -36.5q48 0 97 53z" />
    <glyph glyph-name="ae" unicode="&#xe6;" horiz-adv-x="760" 
d="M614 260q-9 92 -87 92q-30 0 -52.5 -16.5t-22.5 -36.5v-39h162zM348 131v197q-30 24 -54 24q-54 0 -86 -38t-32 -106q0 -128 100 -128q46 0 72 51zM50 256q25 83 86 135.5t140 52.5q60 0 138 -43q37 43 113 43q74 0 130 -59q50 -53 59 -122q7 -54 29 -80h-293v-30
q0 -73 95 -73q49 0 112 45l58 -91q-21 6 -58 -19q-62 -32 -125 -32q-87 0 -151 65q-62 -64 -122 -64q-146 0 -211 188q-21 28 -48 39v7q28 10 48 38z" />
    <glyph glyph-name="ccedilla" unicode="&#xe7;" horiz-adv-x="498" 
d="M430 -119q0 -43 -39 -70q-35 -25 -84 -25q-29 0 -75 14q-13 4 -20 -2l25 66q-1 0 17.5 -6.5t31.5 -6.5q46 0 46 32q0 29 -40 29q-37 0 -93 -5l38 99h72v-41q50 5 85.5 -20.5t35.5 -63.5zM472 37q-10 0 -69.5 -27t-116.5 -27q-77 0 -139 52t-82 137q-21 28 -48 39v7
q27 10 49 38q24 88 82.5 138t141.5 50q45 0 80 -14q19 -7 46 -25q21 -14 32 -14q4 0 8 1l-56 -85q-46 45 -91 45q-58 0 -94.5 -39t-36.5 -94q0 -62 41 -102q38 -37 90 -37q49 0 106 47z" />
    <glyph glyph-name="egrave" unicode="&#xe8;" horiz-adv-x="551" 
d="M501 183h-325q24 -103 127 -103q53 0 111 45l58 -91q-15 4 -58 -19q-59 -32 -125 -32q-165 0 -226 189q-23 29 -49 39v7q27 10 49 38q56 188 215 188q80 0 136 -60q48 -51 59 -121q9 -57 28 -80zM371 260q-11 92 -89 92q-40 0 -68.5 -28t-31.5 -64h189zM322 569l-26 -24
l-168 117l65 66z" />
    <glyph glyph-name="eacute" unicode="&#xe9;" horiz-adv-x="551" 
d="M213 569l27 -24l167 117l-65 66zM501 183h-325q24 -103 127 -103q53 0 111 45l58 -91q-15 4 -58 -19q-59 -32 -125 -32q-165 0 -226 189q-23 29 -49 39v7q27 10 49 38q56 188 215 188q80 0 136 -60q48 -51 59 -121q9 -57 28 -80zM371 260q-11 92 -89 92q-40 0 -68.5 -28
t-31.5 -64h189z" />
    <glyph glyph-name="ecircumflex" unicode="&#xea;" horiz-adv-x="551" 
d="M450 531l-16 -15l-165 95l-168 -95l-17 15l161 157h46zM501 183h-325q24 -103 127 -103q53 0 111 45l58 -91q-15 4 -58 -19q-59 -32 -125 -32q-165 0 -226 189q-23 29 -49 39v7q27 10 49 38q56 188 215 188q80 0 136 -60q48 -51 59 -121q9 -57 28 -80zM371 260
q-11 92 -89 92q-40 0 -68.5 -28t-31.5 -64h189z" />
    <glyph glyph-name="edieresis" unicode="&#xeb;" horiz-adv-x="551" 
d="M418 636q0 -20 -13.5 -34.5t-33.5 -14.5t-33.5 14.5t-13.5 34.5q0 19 13.5 32.5t33.5 13.5q19 0 33 -13.5t14 -32.5zM230 636q0 -20 -13.5 -34.5t-33.5 -14.5t-33.5 14.5t-13.5 34.5q0 19 13.5 32.5t33.5 13.5q19 0 33 -13.5t14 -32.5zM501 183h-325q24 -103 127 -103
q53 0 111 45l58 -91q-15 4 -58 -19q-59 -32 -125 -32q-165 0 -226 189q-23 29 -49 39v7q27 10 49 38q56 188 215 188q80 0 136 -60q48 -51 59 -121q9 -57 28 -80zM371 260q-11 92 -89 92q-40 0 -68.5 -28t-31.5 -64h189z" />
    <glyph glyph-name="igrave" unicode="&#xec;" horiz-adv-x="338" 
d="M270 0h-200v428h200v-15q-58 0 -78 -40q-12 -26 -12 -83v-159q0 -59 12 -81q19 -35 78 -35v-15zM280 569l-26 -24l-168 117l65 66z" />
    <glyph glyph-name="iacute" unicode="&#xed;" horiz-adv-x="338" 
d="M270 0h-200v428h200v-15q-58 0 -78 -40q-12 -26 -12 -83v-159q0 -59 12 -81q19 -35 78 -35v-15zM70 569l27 -24l167 117l-65 66z" />
    <glyph glyph-name="icircumflex" unicode="&#xee;" horiz-adv-x="338" 
d="M270 0h-200v428h200v-15q-58 0 -78 -40q-12 -26 -12 -83v-159q0 -59 12 -81q19 -35 78 -35v-15zM352 531l-16 -15l-165 95l-168 -95l-17 15l161 157h46z" />
    <glyph glyph-name="idieresis" unicode="&#xef;" horiz-adv-x="338" 
d="M270 0h-200v428h200v-15q-58 0 -78 -40q-12 -26 -12 -83v-159q0 -59 12 -81q19 -35 78 -35v-15zM300 636q0 -20 -13.5 -34.5t-33.5 -14.5t-33.5 14.5t-13.5 34.5q0 19 13.5 32.5t33.5 13.5q19 0 33 -13.5t14 -32.5zM112 636q0 -20 -13.5 -34.5t-33.5 -14.5t-33.5 14.5
t-13.5 34.5q0 19 13.5 32.5t33.5 13.5q19 0 33 -13.5t14 -32.5z" />
    <glyph glyph-name="eth" unicode="&#xf0;" horiz-adv-x="614" 
d="M432 207q0 59 -34 95.5t-88 36.5q-52 0 -88 -35q-38 -38 -38 -99q0 -57 39 -92q36 -31 87 -31q50 0 86 35t36 90zM560 242q26 -30 55 -30v-8q-32 0 -56 -31q-75 -192 -249 -192q-173 0 -247 191v1q-24 31 -56 31v8q28 0 57 33q23 89 85 140.5t146 51.5q56 0 100 -26
q-11 48 -56 104q-16 21 -42 41l-26 -53h-150q30 0 52 26q10 13 28 50l11 23q-40 15 -103 18v115q11 -16 19 -17q65 -5 129 -28l23 45h147q-14 -5 -26 -12q-29 -18 -44 -47l-15 -29q48 -30 92 -78q108 -118 126 -327z" />
    <glyph glyph-name="ntilde" unicode="&#xf1;" horiz-adv-x="605" 
d="M451 648q0 -38 -37 -71.5t-77 -33.5q-24 0 -70 22t-64 22q-25 0 -40 -26l-8 10q0 22 29 52q33 33 70 33q29 0 68.5 -18.5t57.5 -18.5q47 0 64 43zM579 15v-15h-199v231q0 114 -83 114q-40 0 -78 -42v-303h-198v15q58 0 77 37q13 24 13 83v151q0 60 -13 86q-20 41 -77 41
v15h198v-28q59 45 117 45q70 0 111.5 -42.5t41.5 -119.5v-148q0 -59 13 -83q19 -37 77 -37z" />
    <glyph glyph-name="ograve" unicode="&#xf2;" horiz-adv-x="551" 
d="M64 172q-21 28 -49 39v7q26 9 49 37q15 79 81 134t146 55q85 0 150 -54.5t81 -133.5q20 -28 48 -38v-7q-28 -11 -48 -38q-17 -83 -81.5 -135.5t-149.5 -52.5q-83 0 -146.5 53t-80.5 134zM415 214q0 56 -34 96.5t-90 40.5q-53 0 -86.5 -40t-33.5 -97q0 -56 31 -94
q34 -41 89 -41q56 0 91 41q33 38 33 94zM330 569l-26 -24l-168 117l65 66z" />
    <glyph glyph-name="oacute" unicode="&#xf3;" horiz-adv-x="551" 
d="M177 569l27 -24l167 117l-65 66zM64 172q-21 28 -49 39v7q26 9 49 37q15 79 81 134t146 55q85 0 150 -54.5t81 -133.5q20 -28 48 -38v-7q-28 -11 -48 -38q-17 -83 -81.5 -135.5t-149.5 -52.5q-83 0 -146.5 53t-80.5 134zM415 214q0 56 -34 96.5t-90 40.5q-53 0 -86.5 -40
t-33.5 -97q0 -56 31 -94q34 -41 89 -41q56 0 91 41q33 38 33 94z" />
    <glyph glyph-name="ocircumflex" unicode="&#xf4;" horiz-adv-x="551" 
d="M471 531l-16 -15l-165 95l-168 -95l-17 15l161 157h46zM64 172q-21 28 -49 39v7q26 9 49 37q15 79 81 134t146 55q85 0 150 -54.5t81 -133.5q20 -28 48 -38v-7q-28 -11 -48 -38q-17 -83 -81.5 -135.5t-149.5 -52.5q-83 0 -146.5 53t-80.5 134zM415 214q0 56 -34 96.5
t-90 40.5q-53 0 -86.5 -40t-33.5 -97q0 -56 31 -94q34 -41 89 -41q56 0 91 41q33 38 33 94z" />
    <glyph glyph-name="otilde" unicode="&#xf5;" horiz-adv-x="551" 
d="M414 648q0 -38 -37 -71.5t-77 -33.5q-24 0 -70 22t-64 22q-25 0 -40 -26l-8 10q0 22 29 52q33 33 70 33q29 0 68.5 -18.5t57.5 -18.5q47 0 64 43zM64 172q-21 28 -49 39v7q26 9 49 37q15 79 81 134t146 55q85 0 150 -54.5t81 -133.5q20 -28 48 -38v-7q-28 -11 -48 -38
q-17 -83 -81.5 -135.5t-149.5 -52.5q-83 0 -146.5 53t-80.5 134zM415 214q0 56 -34 96.5t-90 40.5q-53 0 -86.5 -40t-33.5 -97q0 -56 31 -94q34 -41 89 -41q56 0 91 41q33 38 33 94z" />
    <glyph glyph-name="odieresis" unicode="&#xf6;" horiz-adv-x="551" 
d="M427 636q0 -20 -13.5 -34.5t-33.5 -14.5t-33.5 14.5t-13.5 34.5q0 19 13.5 32.5t33.5 13.5q19 0 33 -13.5t14 -32.5zM239 636q0 -20 -13.5 -34.5t-33.5 -14.5t-33.5 14.5t-13.5 34.5q0 19 13.5 32.5t33.5 13.5q19 0 33 -13.5t14 -32.5zM64 172q-21 28 -49 39v7
q26 9 49 37q15 79 81 134t146 55q85 0 150 -54.5t81 -133.5q20 -28 48 -38v-7q-28 -11 -48 -38q-17 -83 -81.5 -135.5t-149.5 -52.5q-83 0 -146.5 53t-80.5 134zM415 214q0 56 -34 96.5t-90 40.5q-53 0 -86.5 -40t-33.5 -97q0 -56 31 -94q34 -41 89 -41q56 0 91 41
q33 38 33 94z" />
    <glyph glyph-name="divide" unicode="&#xf7;" horiz-adv-x="627" 
d="M591 245q-31 34 -121 34h-309q-90 0 -121 -34v157q31 -34 121 -34h309q90 0 121 34v-157zM258 584q20 29 53 29q35 0 57.5 -33t54.5 -33q-28 0 -53 -31q-17 -35 -57 -35q-34 0 -55 28v-1q-25 38 -58 38q33 0 58 38zM258 106q20 29 53 29q35 0 57.5 -33t54.5 -33
q-28 0 -53 -31q-17 -35 -57 -35q-34 0 -55 28v-1q-25 38 -58 38q33 0 58 38z" />
    <glyph glyph-name="oslash" unicode="&#xf8;" horiz-adv-x="551" 
d="M399 214q0 52 -30 91l-105 -226h12q55 0 89 40t34 95zM284 350q-3 1 -8 1q-55 0 -88 -40.5t-33 -96.5q0 -48 25 -86zM506 260q19 -27 47 -37v-7q-27 -11 -47 -38q-17 -84 -81 -138.5t-150 -54.5q-28 0 -52 6l-62 -132h-198q89 1 173 175q-70 55 -88 144q-21 27 -47 38v7
q28 10 47 36q15 78 81 131.5t146 53.5q23 0 50 -5l63 134h196q-89 0 -171 -174q76 -55 93 -139z" />
    <glyph glyph-name="ugrave" unicode="&#xf9;" horiz-adv-x="605" 
d="M574 0h-198v21q-52 -34 -103 -34q-77 0 -122 45t-45 113v135q0 62 -13 90q-20 43 -77 43v15h199v-231q0 -62 22.5 -88.5t74.5 -26.5q23 0 64 29v317h198v-15q-57 0 -77 -43q-13 -28 -13 -90v-138q0 -61 13 -87q19 -40 77 -40v-15zM367 569l-26 -24l-168 117l65 66z" />
    <glyph glyph-name="uacute" unicode="&#xfa;" horiz-adv-x="605" 
d="M219 569l27 -24l167 117l-65 66zM574 0h-198v21q-52 -34 -103 -34q-77 0 -122 45t-45 113v135q0 62 -13 90q-20 43 -77 43v15h199v-231q0 -62 22.5 -88.5t74.5 -26.5q23 0 64 29v317h198v-15q-57 0 -77 -43q-13 -28 -13 -90v-138q0 -61 13 -87q19 -40 77 -40v-15z" />
    <glyph glyph-name="ucircumflex" unicode="&#xfb;" horiz-adv-x="605" 
d="M484 531l-16 -15l-165 95l-168 -95l-17 15l161 157h46zM574 0h-198v21q-52 -34 -103 -34q-77 0 -122 45t-45 113v135q0 62 -13 90q-20 43 -77 43v15h199v-231q0 -62 22.5 -88.5t74.5 -26.5q23 0 64 29v317h198v-15q-57 0 -77 -43q-13 -28 -13 -90v-138q0 -61 13 -87
q19 -40 77 -40v-15z" />
    <glyph glyph-name="udieresis" unicode="&#xfc;" horiz-adv-x="605" 
d="M438 636q0 -20 -13.5 -34.5t-33.5 -14.5t-33.5 14.5t-13.5 34.5q0 19 13.5 32.5t33.5 13.5q19 0 33 -13.5t14 -32.5zM250 636q0 -20 -13.5 -34.5t-33.5 -14.5t-33.5 14.5t-13.5 34.5q0 19 13.5 32.5t33.5 13.5q19 0 33 -13.5t14 -32.5zM574 0h-198v21q-52 -34 -103 -34
q-77 0 -122 45t-45 113v135q0 62 -13 90q-20 43 -77 43v15h199v-231q0 -62 22.5 -88.5t74.5 -26.5q23 0 64 29v317h198v-15q-57 0 -77 -43q-13 -28 -13 -90v-138q0 -61 13 -87q19 -40 77 -40v-15z" />
    <glyph glyph-name="yacute" unicode="&#xfd;" horiz-adv-x="498" 
d="M550 428v-15q-74 0 -103 -64l-278 -611h-187v15q54 7 67 11q34 12 47 43l110 260l-131 282q-30 64 -98 64v15h170l116 -260l115 260h172zM190 569l27 -24l167 117l-65 66z" />
    <glyph glyph-name="thorn" unicode="&#xfe;" horiz-adv-x="605" 
d="M390 207q0 64 -34 104.5t-93 40.5q-25 0 -60 -22v-231q44 -21 70 -21q48 0 82.5 34.5t34.5 94.5zM294 -8q-36 0 -91 24v-278h-165q61 29 61 153v630q0 80 -7 117q-13 74 -55 74h166v-312q51 44 110 44q73 0 125 -47.5t76 -130.5q32 -38 61 -38v-8q-36 0 -60 -37
q-64 -191 -221 -191z" />
    <glyph glyph-name="ydieresis" unicode="&#xff;" horiz-adv-x="498" 
d="M550 428v-15q-74 0 -103 -64l-278 -611h-187v15q54 7 67 11q34 12 47 43l110 260l-131 282q-30 64 -98 64v15h170l116 -260l115 260h172zM401 636q0 -20 -13.5 -34.5t-33.5 -14.5t-33.5 14.5t-13.5 34.5q0 19 13.5 32.5t33.5 13.5q19 0 33 -13.5t14 -32.5zM213 636
q0 -20 -13.5 -34.5t-33.5 -14.5t-33.5 14.5t-13.5 34.5q0 19 13.5 32.5t33.5 13.5q19 0 33 -13.5t14 -32.5z" />
    <glyph glyph-name="dotlessi" unicode="&#x131;" horiz-adv-x="338" 
d="M270 0h-200v428h200v-15q-58 0 -78 -40q-12 -26 -12 -83v-159q0 -59 12 -81q19 -35 78 -35v-15z" />
    <glyph glyph-name="Lslash" unicode="&#x141;" horiz-adv-x="659" 
d="M334 714v-14q-90 0 -90 -171v-49l52 25q44 21 59 70v-147l-111 -54v-286h184q90 0 121 34v-122h-509v15q90 0 90 171v133l-14 -7q-55 -27 -75 -80v150l89 43v104q0 171 -90 171v14h294z" />
    <glyph glyph-name="lslash" unicode="&#x142;" horiz-adv-x="338" 
d="M106 427v135q0 63 -13 92q-20 46 -77 46v15h196v-234l42 21q45 22 60 70v-147l-102 -52v-233q0 -60 13 -86q21 -39 79 -39v-15h-198v319l-14 -7q-55 -27 -76 -80v150z" />
    <glyph glyph-name="OE" unicode="&#x152;" horiz-adv-x="1067" 
d="M614 556q-70 85 -181 85q-114 0 -181 -85q-61 -77 -61 -194t61 -194q67 -85 181 -85q113 0 181 81v392zM59 400q13 139 122.5 236t251.5 97q59 0 106 -19h465v-124q-18 23 -47 30q-19 4 -65 4h-164v-196h139q45 0 65 13v-115q-19 13 -65 13h-76q-29 0 -46 -19.5
t-17 -51.5v-180h184q90 0 121 34v-122h-493q-45 -18 -107 -18q-146 0 -253 102q-103 99 -121 245q-22 24 -56 31v8q35 3 56 32z" />
    <glyph glyph-name="oe" unicode="&#x153;" horiz-adv-x="816" 
d="M816 183h-315q22 -103 117 -103q53 0 111 45l58 -91q-14 4 -40 -8q-72 -43 -143 -43q-107 0 -171 81q-69 -79 -175 -79q-88 0 -154 62t-77 151q-9 12 -24 20q15 7 25 21q7 85 75.5 145t154.5 60q102 0 175 -78q62 78 160 78q80 0 135 -60q47 -50 60 -121q0 -46 28 -80z
M686 260q-11 92 -89 92q-39 0 -64 -29q-23 -25 -26 -63h179zM381 214q0 56 -33.5 96.5t-89.5 40.5q-55 0 -87.5 -40.5t-32.5 -96.5t31 -94q34 -41 89 -41q56 0 90 41q33 38 33 94z" />
    <glyph glyph-name="Scaron" unicode="&#x160;" horiz-adv-x="730" 
d="M650 198q-27 -4 -55 -34q-20 -87 -91 -136q-66 -47 -152 -47q-66 0 -124 27q-32 15 -80 51q-37 27 -52 27q-4 0 -7 -1l103 86q63 -89 155 -89q47 0 84 34t37 81q0 62 -76 111q-74 41 -149 83q-87 54 -105 123q-27 35 -57 37q28 4 58 38v0q22 72 83 111q55 35 128 35
q63 0 114 -31q18 -11 71 -56q36 -31 61 -31l-100 -74q-58 99 -146 99q-39 0 -67.5 -26t-28.5 -65q0 -49 80 -94q77 -42 155 -85q89 -59 106 -140q27 -33 55 -34zM348 867l165 95q1 0 10 6t13 6q8 0 8 -7q0 3 -15 -20l-159 -157q-15 -19 -23 -19q-2 0 -23 17l-161 159
q-14 14 -14 20t8 6q4 0 23 -11z" />
    <glyph glyph-name="scaron" unicode="&#x161;" horiz-adv-x="498" 
d="M72 355q20 43 66 67q40 22 83 22q68 0 139 -53q9 -6 30 -15q7 0 12 -1l-62 -80q-12 14 -43 33q-41 24 -70 24q-66 0 -66 -39q0 -16 48 -34q77 -28 97 -39q56 -30 70 -75q22 -29 50 -39v-7q-19 -7 -49 -38q-47 -97 -164 -97q-77 0 -153 52q-18 12 -38 8l66 90
q15 -15 43 -30q42 -22 82 -22q29 0 46.5 12.5t17.5 28.5q0 29 -46 48t-92 37q-54 25 -67 64q-22 29 -49 39v7q18 7 49 37zM405 673l-161 -157h-46l-159 157l16 15l165 -95l168 95z" />
    <glyph glyph-name="Ydieresis" unicode="&#x178;" horiz-adv-x="749" 
d="M750 715h-205l-179 -260l-180 260h-206v-15q91 0 215 -183l113 -167v-164q0 -171 -89 -171v-15h292v15q-89 0 -89 171v164l114 167q125 183 214 183v15zM511 902q0 19 -14 32.5t-33 13.5q-20 0 -33.5 -13.5t-13.5 -32.5q0 -20 13.5 -34.5t33.5 -14.5t33.5 14.5t13.5 34.5
zM323 902q0 19 -14 32.5t-33 13.5q-20 0 -33.5 -13.5t-13.5 -32.5q0 -20 13.5 -34.5t33.5 -14.5t33.5 14.5t13.5 34.5z" />
    <glyph glyph-name="Zcaron" unicode="&#x17d;" horiz-adv-x="898" 
d="M821 714q-33 0 -97 -79q-22 -25 -92 -123l-305 -424h313q84 0 112 37v-125h-675q28 0 58 33q13 13 60 77l381 518h-319q-46 0 -65 -4q-30 -7 -48 -31v121h677zM451 867l165 95q1 0 10 6t13 6q8 0 8 -7q0 3 -15 -20l-159 -157q-15 -19 -23 -19q-2 0 -23 17l-161 159
q-14 14 -14 20t8 6q4 0 23 -11z" />
    <glyph glyph-name="zcaron" unicode="&#x17e;" horiz-adv-x="516" 
d="M486 428v-15q-55 0 -189 -187l-99 -138h137q84 0 112 37v-125h-475v15q29 0 58 25q22 19 60 70l174 230h-127q-46 0 -65 -4q-30 -7 -48 -30v122h462zM404 673l-161 -157h-46l-159 157l16 15l165 -95l168 95z" />
    <glyph glyph-name="florin" unicode="&#x192;" horiz-adv-x="604" 
d="M597 676l-89 -94q-35 49 -77 49q-106 0 -133 -121l-18 -82h61q44 0 67 13l-24 -115q-17 13 -62 13h-62l-68 -309q1 4 1 9q-19 -83 -87 -139q-65 -52 -136 -52q-37 0 -95 26.5t-71 26.5q-8 0 -14 -4l88 94q46 -49 92 -49q37 0 72 34t47 87q1 -13 63 276h-34q-46 0 -67 -13
l24 115q18 -13 62 -13h34l22 106q19 94 88 145q63 46 150 46q38 0 87.5 -26t64.5 -26q7 0 14 3z" />
    <glyph glyph-name="circumflex" unicode="&#x2c6;" horiz-adv-x="538" 
d="M452 531l-16 -15l-165 95l-168 -95l-17 15l161 157h46z" />
    <glyph glyph-name="caron" unicode="&#x2c7;" horiz-adv-x="498" 
d="M435 673l-161 -157h-46l-159 157l16 15l165 -95l168 95z" />
    <glyph glyph-name="breve" unicode="&#x2d8;" horiz-adv-x="428" 
d="M348 663q10 0 10 -11q0 -35 -43 -71q-47 -39 -101 -39q-53 0 -98 35.5t-45 74.5q0 11 9 11q2 0 18 -14q20 -16 41 -25q32 -14 71 -14q43 0 77 14q22 9 42 25q17 14 19 14z" />
    <glyph glyph-name="dotaccent" unicode="&#x2d9;" horiz-adv-x="275" 
d="M203 616q0 -28 -19 -48t-46 -20q-28 0 -47 19.5t-19 48.5q0 26 19.5 44.5t45.5 18.5q27 0 46.5 -18.5t19.5 -44.5z" />
    <glyph glyph-name="ring" unicode="&#x2da;" horiz-adv-x="301" 
d="M235 627q0 -31 -25 -54.5t-56 -23.5q-34 0 -60.5 21.5t-26.5 54.5q0 34 24.5 58.5t59.5 24.5q33 0 58.5 -24t25.5 -57zM195 627q0 19 -13 32.5t-32 13.5q-18 0 -30.5 -13.5t-12.5 -31.5q0 -19 13 -31.5t31 -12.5t31 13t13 30z" />
    <glyph glyph-name="ogonek" unicode="&#x2db;" horiz-adv-x="316" 
d="M43 -125q0 -43 39 -70q35 -25 84 -25q30 0 75 14q14 4 20 -2l-25 66q2 0 -16.5 -6.5t-32.5 -6.5q-49 0 -49 47q0 38 29.5 73.5t68.5 34.5h-72q-121 -17 -121 -125z" />
    <glyph glyph-name="tilde" unicode="&#x2dc;" horiz-adv-x="439" 
d="M368 648q0 -38 -37 -71.5t-77 -33.5q-24 0 -70 22t-64 22q-25 0 -40 -26l-8 10q0 22 29 52q33 33 70 33q29 0 68.5 -18.5t57.5 -18.5q47 0 64 43z" />
    <glyph glyph-name="hungarumlaut" unicode="&#x2dd;" horiz-adv-x="487" 
d="M60 569l27 -24l167 117l-65 66zM252 569l27 -24l167 117l-65 66z" />
    <glyph glyph-name="Delta" unicode="&#x394;" horiz-adv-x="500" 
 />
    <glyph glyph-name="Delta" unicode="&#x2206;" horiz-adv-x="500" 
 />
    <glyph glyph-name="Omega" unicode="&#x3a9;" horiz-adv-x="500" 
 />
    <glyph glyph-name="Omega" unicode="&#x2126;" horiz-adv-x="500" 
 />
    <glyph glyph-name="pi" unicode="&#x3c0;" horiz-adv-x="500" 
 />
    <glyph glyph-name="endash" unicode="&#x2013;" horiz-adv-x="500" 
d="M592 293q-65 0 -90 -92h-493q47 0 75 92h508z" />
    <glyph glyph-name="emdash" unicode="&#x2014;" 
d="M1088 293q-65 0 -90 -92h-989q47 0 75 92h1004z" />
    <glyph glyph-name="quoteleft" unicode="&#x2018;" horiz-adv-x="302" 
d="M127 555h43q49 -8 49 -61q0 -51 -47 -65l-21 -29l-20 28q-34 8 -54 41q-19 30 -19 67q0 70 52 131q43 51 69 51v-54q-56 -40 -52 -109z" />
    <glyph glyph-name="quoteright" unicode="&#x2019;" horiz-adv-x="302" 
d="M174 605h-43q-49 8 -49 61q0 51 47 65l21 29l20 -28q34 -8 53.5 -39.5t19.5 -68.5q0 -70 -52 -131q-43 -51 -69 -51v54q56 40 52 109z" />
    <glyph glyph-name="quotesinglbase" unicode="&#x201a;" horiz-adv-x="302" 
d="M163 -14h-43q-49 8 -49 61q0 51 47 65l21 30l20 -29q34 -8 53.5 -39.5t19.5 -68.5q0 -70 -52 -131q-43 -51 -69 -51v54q56 40 52 109z" />
    <glyph glyph-name="quotedblleft" unicode="&#x201c;" horiz-adv-x="551" 
d="M377 555h43q49 -8 49 -61q0 -51 -47 -65l-21 -29l-20 28q-34 8 -54 41q-19 30 -19 67q0 70 52 131q43 51 69 51v-54q-56 -40 -52 -109zM127 555h43q49 -8 49 -61q0 -51 -47 -65l-21 -29l-20 28q-34 8 -54 41q-19 30 -19 67q0 70 52 131q43 51 69 51v-54q-56 -40 -52 -109
z" />
    <glyph glyph-name="quotedblright" unicode="&#x201d;" horiz-adv-x="551" 
d="M174 605h-43q-49 8 -49 61q0 51 47 65l21 29l20 -28q34 -8 53.5 -39.5t19.5 -68.5q0 -70 -52 -131q-43 -51 -69 -51v54q56 40 52 109zM424 605h-43q-49 8 -49 61q0 51 47 65l21 29l20 -28q34 -8 53.5 -39.5t19.5 -68.5q0 -70 -52 -131q-43 -51 -69 -51v54q56 40 52 109z
" />
    <glyph glyph-name="quotedblbase" unicode="&#x201e;" horiz-adv-x="551" 
d="M162 -17h-43q-49 10 -49 61q0 50 47 66l21 29l20 -28q34 -9 53.5 -40t19.5 -69q0 -70 -52 -131q-43 -51 -69 -51v54q56 40 52 109zM412 -17h-43q-49 10 -49 61q0 50 47 66l21 29l20 -28q34 -9 53.5 -40t19.5 -69q0 -70 -52 -131q-43 -51 -69 -51v54q56 40 52 109z" />
    <glyph glyph-name="dagger" unicode="&#x2020;" horiz-adv-x="630" 
d="M574 245q-31 34 -104 34h-99v-50q0 -169 89 -169l2 -17h-294v17q90 0 90 169v50h-97q-38 0 -55 -4q-28 -7 -49 -30h-17v157h17q21 -23 49 -30q17 -4 55 -4h97v31q0 170 -90 170l1 16h292l-1 -16q-57 0 -77 -62q-12 -37 -12 -108v-31h99q38 0 55 4q28 7 48 30h18v-157h-17
z" />
    <glyph glyph-name="daggerdbl" unicode="&#x2021;" horiz-adv-x="604" 
d="M591 -60q-31 34 -121 34h-99v-50q0 -185 89 -186h-292q90 1 90 186v50h-97q-90 0 -121 -34v158q31 -34 121 -34h97v342l-97 -1q-44 0 -64 -4q-37 -8 -57 -30v158q31 -34 121 -34h97v30q0 187 -90 187h293q-90 0 -90 -187v-30h99q90 0 121 34v-158q-31 34 -121 34h-99
v-341h99q90 0 121 34v-158z" />
    <glyph glyph-name="bullet" unicode="&#x2022;" horiz-adv-x="557" 
d="M331 383q0 -26 -19 -45t-45 -19t-45 19t-19 45t19 45t45 19t45 -19t19 -45z" />
    <glyph glyph-name="ellipsis" unicode="&#x2026;" 
d="M114 84q20 29 53 29q35 0 57.5 -33t54.5 -33q-28 0 -53 -31q-17 -35 -57 -35q-34 0 -55 28v-1q-25 38 -58 38q33 0 58 38zM446 84q20 29 53 29q35 0 57.5 -33t54.5 -33q-28 0 -53 -31q-17 -35 -57 -35q-34 0 -55 28v-1q-25 38 -58 38q33 0 58 38zM780 84q20 29 53 29
q35 0 57.5 -33t54.5 -33q-28 0 -53 -31q-17 -35 -57 -35q-34 0 -55 28v-1q-25 38 -58 38q33 0 58 38z" />
    <glyph glyph-name="perthousand" unicode="&#x2030;" horiz-adv-x="1123" 
d="M1123 182q-17 -5 -28 -17q-9 -77 -49 -124q-42 -50 -103 -50q-57 0 -99.5 50t-51.5 124q-9 12 -27 17q18 3 28 18q6 73 46.5 119.5t103.5 46.5t104.5 -47t47.5 -119q10 -15 28 -18zM760 182q-17 -5 -28 -17q-9 -76 -50 -125t-102 -49q-58 0 -100 50t-51 124
q-11 12 -28 17q19 3 28 18q7 73 47.5 119.5t103.5 46.5q62 0 103.5 -47t48.5 -119q9 -15 28 -18zM669 713q-91 0 -173 -186l-233 -528h-189q91 0 173 186l233 528h189zM340 532q-17 -5 -27 -18q-9 -76 -49 -123q-42 -50 -103 -50q-58 0 -100 50t-51 123q-10 13 -28 18
q18 2 28 17q6 73 47 120t104 47q62 0 103.5 -47t48.5 -120q10 -15 27 -17zM1014 181q0 48 -17 79q-20 34 -54 34q-33 0 -51 -33t-18 -80q0 -48 17 -79q19 -35 52 -35q34 0 53 35q18 31 18 79zM650 181q0 48 -18 80.5t-52 32.5q-33 0 -51 -32.5t-18 -80.5t17 -79
q19 -35 52 -35t52 35q18 31 18 79zM231 531q0 47 -17 79q-20 34 -53 34t-51 -32.5t-18 -80.5t17 -79q19 -35 52 -35t52 35q18 31 18 79z" />
    <glyph glyph-name="guilsinglleft" unicode="&#x2039;" horiz-adv-x="500" 
 />
    <glyph glyph-name="guilsinglright" unicode="&#x203a;" horiz-adv-x="500" 
 />
    <glyph glyph-name="fraction" unicode="&#x2044;" horiz-adv-x="498" 
d="M541 713q-89 0 -172 -186l-234 -528h-188q90 0 172 186l151 342q25 57 83 186h188z" />
    <glyph glyph-name="trademark" unicode="&#x2122;" horiz-adv-x="571" 
d="M218 669v45h-193v-45q11 12 44 12h30v-158q0 -62 -33 -62v-6h106v6q-32 0 -32 62v158h34q33 0 44 -12zM549 708v6h-59l-97 -190l-104 190h-59v-6q43 0 37 -62l-11 -124q-3 -34 -5 -39q-6 -22 -28 -22v-6h68l12 159l88 -169h2l84 169l13 -159h68v6q-20 0 -27 21
q-2 7 -5 38l-12 126q-2 21 5 39q10 23 30 23z" />
    <glyph glyph-name="partialdiff" unicode="&#x2202;" horiz-adv-x="500" 
 />
    <glyph glyph-name="product" unicode="&#x220f;" horiz-adv-x="500" 
 />
    <glyph glyph-name="summation" unicode="&#x2211;" horiz-adv-x="500" 
 />
    <glyph glyph-name="radical" unicode="&#x221a;" horiz-adv-x="500" 
 />
    <glyph glyph-name="infinity" unicode="&#x221e;" horiz-adv-x="784" 
d="M826 639q-58 0 -79 -39q-13 -26 -13 -86v-515h-196v15q57 0 77 46q13 29 13 92v502h198v-15zM602 235h-130v278h130v-10q-37 0 -50 -28q-8 -18 -8 -58v-91q0 -39 8 -56q13 -26 50 -26v-9zM480 108h-134l-64 91v-162q0 -29 8 -42h-74q8 12 8 42v171l-127 -180h-134v10
q56 0 140 119l110 156v43q0 13 -11 22.5t-23 9.5h-98v-104q0 -59 22 -79h-79v315h9q0 -59 112 -59h68v68h-130q49 0 75 56h54q-4 82 -58 82v10h191v-10q-49 0 -58 -82h113q-46 0 -67 -56h-47v-68h30q55 0 75 7q39 13 39 58h10v-262h-81q22 17 22 73v50h-95v-74l54 -76
q85 -119 140 -119v-10z" />
    <glyph glyph-name="integral" unicode="&#x222b;" horiz-adv-x="500" 
 />
    <glyph glyph-name="approxequal" unicode="&#x2248;" horiz-adv-x="500" 
 />
    <glyph glyph-name="approxequal" unicode="&#x22f2;" horiz-adv-x="500" 
 />
    <glyph glyph-name="notequal" unicode="&#x2260;" horiz-adv-x="500" 
 />
    <glyph glyph-name="lessequal" unicode="&#x2264;" horiz-adv-x="500" 
 />
    <glyph glyph-name="greaterequal" unicode="&#x2265;" horiz-adv-x="500" 
 />
    <glyph glyph-name="lozenge" unicode="&#x25ca;" horiz-adv-x="500" 
 />
    <glyph glyph-name="apple" unicode="&#xf000;" horiz-adv-x="500" 
 />
    <glyph glyph-name="fi" unicode="&#xf001;" horiz-adv-x="676" 
d="M586 618q-34 0 -57 -35q-20 -31 -55 -31q-24 0 -39 13q-9 7 -26 32q-36 34 -72 34q-108 0 -108 -121v-82h331q-58 0 -78 -45q-12 -28 -12 -91v-157q0 -63 12 -91q20 -44 77 -44h-199v339h-131l-1 -201q-1 -138 96 -138h-294q57 0 77 46q13 29 13 92v201h-34
q-46 0 -65 -13v115q20 -13 65 -13h34v106q0 85 58 138t144 53q43 0 84 -17q29 -13 57 -26h41q8 -7 28 -33q18 -31 54 -31z" />
    <glyph glyph-name="fl" unicode="&#xf002;" horiz-adv-x="659" 
d="M619 -6h-200v594q-43 43 -82 43q-108 0 -108 -121v-82h60q45 0 65 13v-115q-19 13 -65 13h-60l-1 -199q-1 -140 96 -140h-294q57 0 77 47q13 29 13 93v199h-34q-46 0 -65 -13v115q20 -13 65 -13h34v106q0 85 58 138t144 53q59 0 116.5 -35.5t88.5 -35.5v-520
q0 -63 13 -93q21 -46 79 -47z" />
    <glyph glyph-name="glyph218" 
 />
    <glyph glyph-name="glyph219" 
 />
    <glyph glyph-name="glyph220" 
 />
    <glyph glyph-name="glyph221" 
 />
    <glyph glyph-name="glyph222" 
 />
    <glyph glyph-name="glyph223" 
 />
    <glyph glyph-name="glyph224" 
 />
    <glyph glyph-name="glyph225" 
 />
    <glyph glyph-name="glyph226" 
 />
    <glyph glyph-name="glyph227" 
 />
    <glyph glyph-name="glyph228" 
 />
    <glyph glyph-name="glyph229" 
 />
    <glyph glyph-name="glyph230" 
 />
    <glyph glyph-name="glyph231" 
 />
    <glyph glyph-name="glyph232" 
 />
    <glyph glyph-name="glyph233" 
 />
    <glyph glyph-name="glyph234" 
 />
    <glyph glyph-name="glyph235" 
 />
    <glyph glyph-name="glyph236" 
 />
    <glyph glyph-name="glyph237" 
 />
    <glyph glyph-name="glyph238" 
 />
    <glyph glyph-name="glyph239" 
 />
    <glyph glyph-name="glyph240" 
 />
    <glyph glyph-name="glyph241" 
 />
    <glyph glyph-name="glyph242" 
 />
    <glyph glyph-name="glyph243" 
 />
    <glyph glyph-name="glyph244" 
 />
    <glyph glyph-name="glyph245" 
 />
    <glyph glyph-name="glyph246" 
 />
    <glyph glyph-name="glyph247" 
 />
    <glyph glyph-name="glyph248" 
 />
    <glyph glyph-name="glyph249" 
 />
    <glyph glyph-name="glyph250" 
 />
    <glyph glyph-name="glyph251" 
 />
    <glyph glyph-name="glyph252" 
 />
    <glyph glyph-name="glyph253" 
 />
    <glyph glyph-name="glyph254" 
 />
    <glyph glyph-name="glyph255" 
 />
    <glyph glyph-name="glyph256" 
 />
    <glyph glyph-name="glyph257" 
 />
    <glyph glyph-name="glyph258" 
 />
    <glyph glyph-name=".null" horiz-adv-x="500" 
 />
    <glyph glyph-name="HT" horiz-adv-x="0" 
 />
    <glyph glyph-name="LF" horiz-adv-x="500" 
 />
    <glyph glyph-name="nonmarkingreturn" horiz-adv-x="0" 
 />
    <glyph glyph-name="DLE" horiz-adv-x="500" 
 />
    <glyph glyph-name="DC1" horiz-adv-x="500" 
 />
    <glyph glyph-name="DC2" horiz-adv-x="500" 
 />
    <glyph glyph-name="DC3" horiz-adv-x="500" 
 />
    <glyph glyph-name="DC4" horiz-adv-x="500" 
 />
    <glyph glyph-name="RS" horiz-adv-x="500" 
 />
    <glyph glyph-name="US" horiz-adv-x="500" 
 />
    <glyph glyph-name="DEL" horiz-adv-x="500" 
 />
  </font>
</defs>
</svg>
